<ttFont>
<head>
    <!-- Most of this table will be recalculated by the compiler -->
    <tableVersion value="1.0"/>
    <fontRevision value="1.0"/>
    <checkSumAdjustment value="0x46178e8"/>
    <magicNumber value="0x5f0f3cf5"/>
    <flags value="00000000 00000011"/>
    <unitsPerEm value="2048"/>
    <created value="Thu Aug 15 19:04:27 2019"/>
    <modified value="Fri Aug 16 02:19:06 2019"/>
    <xMin value="-486"/>
    <yMin value="-517"/>
    <xMax value="3443"/>
    <yMax value="1989"/>
<macStyle value="00000000 00000000"/>
    <lowestRecPPEM value="3"/>
    <fontDirectionHint value="2"/>
    <indexToLocFormat value="0"/>
    <glyphDataFormat value="0"/>
  </head>
          <CharString index="0">
            -1066 vlineto
            -89 -77 callsubr
            return
          </CharString>
          <CharString index="1">
            rmoveto
            -403 -48 0 -54 return
          </CharString>
          <CharString index="2">
            61 -18 rlineto
            56 -18 8 -13 -59 vvcurveto
            return
          </CharString>
          <CharString index="3">
            rmoveto
            13 callsubr
            return
          </CharString>
          <CharString index="4">
            309 -229 203 -306 -310 -233 -212 -308 return
          </CharString>
          <CharString index="5">
            60 -18 rlineto
            56 -18 8 -13 -59 vvcurveto
            return
          </CharString>
          <CharString index="6">
            457 -347 288 -403 83 callsubr
            67 callsubr
            288 -32 callgsubr
            53 callsubr
            endchar
          </CharString>
          <CharString index="7">
            -495 vlineto
            -213 135 -108 return
          </CharString>
          <CharString index="8">
            38 callsubr
            endchar
          </CharString>
          <CharString index="9">
            155 callsubr
            endchar
          </CharString>
          <CharString index="10">
            198 162 119 76 107 53 vhcurveto
            -174 vlineto
            return
          </CharString>
          <CharString index="11">
            rmoveto
            -21 callsubr
            46 callsubr
            endchar
          </CharString>
          <CharString index="12">
            rmoveto
            310 234 213 308 return
          </CharString>
          <CharString index="13">
            400 45 0 54 -60 18 rlineto
            return
          </CharString>
          <CharString index="14">
            -595 37 callsubr
            return
          </CharString>
          <CharString index="15">
            1542 -71 callgsubr
            return
          </CharString>
          <CharString index="16">
            rmoveto
            -1097 -79 callsubr
            -107 callsubr
            1144 vlineto
            -35 callsubr
            endchar
          </CharString>
          <CharString index="17">
            -634 -83 callgsubr
            return
          </CharString>
          <CharString index="18">
            -78 callsubr
            endchar
          </CharString>
          <CharString index="19">
            rmoveto
            -316 225 -197 291 return
          </CharString>
          <CharString index="20">
            51 callsubr
            endchar
          </CharString>
          <CharString index="21">
            45 callsubr
            endchar
          </CharString>
          <CharString index="22">
            rmoveto
            -44 callgsubr
            227 callsubr
            endchar
          </CharString>
          <CharString index="23">
            rmoveto
            75 60 53 71 72 -60 53 -75 return
          </CharString>
          <CharString index="24">
            rmoveto
            -43 callsubr
            22 callsubr
          </CharString>
          <CharString index="25">
            rmoveto
            1066 vlineto
            89 20 22 127 19 vhcurveto
            59 return
          </CharString>
          <CharString index="26">
            -9 callsubr
            endchar
          </CharString>
          <CharString index="27">
            1119 rmoveto
            364 363 rlineto
            9 return
          </CharString>
          <CharString index="28">
            -59 hlineto
            -63 callsubr
            return
          </CharString>
          <CharString index="29">
            527 59 vlineto
            -107 16 -17 18 69 vvcurveto
            return
          </CharString>
          <CharString index="30">
            -19 -22 -128 -19 vhcurveto
            -59 return
          </CharString>
          <CharString index="31">
            54 43 35 49 48 -43 35 -54 hvcurveto
            -10 hlineto
            78 callsubr
            return
          </CharString>
          <CharString index="32">
            1066 vlineto
            90 21 21 126 19 vhcurveto
            59 return
          </CharString>
          <CharString index="33">
            513 59 vlineto
            -97 15 -13 16 66 vvcurveto
            return
          </CharString>
          <CharString index="34">
            rmoveto
            564 138 -564 hlineto
            endchar
          </CharString>
          <CharString index="35">
            -288 vlineto
            -151 -372 rlineto
            return
          </CharString>
          <CharString index="36">
            619 -97 callgsubr
            return
          </CharString>
          <CharString index="37">
            rmoveto
            329 -796 -76 -141 -122 -185 -87 -104 rlinecurve
            -5 225 vlineto
            157 442 107 260 207 507 60 146 25 23 88 16 rlinecurve
            60 -356 -60 vlineto
            120 -15 17 -28 -47 -131 rrcurveto
            -174 -475 -174 479 -45 127 15 28 121 15 rlinecurve
            60 -550 -60 vlineto
            85 -17 25 -24 50 -122 rrcurveto
            endchar
          </CharString>
          <CharString index="38">
            -586 -59 vlineto
            119 -18 19 -20 -86 vvcurveto
            return
          </CharString>
          <CharString index="39">
            15 -13 16 66 vvcurveto
            -54 callsubr
            return
          </CharString>
          <CharString index="40">
            43 -58 hvcurveto
            -9 -98 callgsubr
            return
          </CharString>
          <CharString index="41">
            rmoveto
            220 172 218 -172 return
          </CharString>
          <CharString index="42">
            1840 rmoveto
            -219 -142 return
          </CharString>
          <CharString index="43">
            189 -82 callsubr
            return
          </CharString>
          <CharString index="44">
            128 -19 19 -22 -89 vvcurveto
            return
          </CharString>
          <CharString index="45">
            rmoveto
            320 -543 rlineto
            -441 vlineto
            -98 -22 -28 -137 -18 vhcurveto
            -59 -71 callsubr
            457 vlineto
            298 501 105 174 36 32 103 18 rlinecurve
            59 218 callsubr
            endchar
          </CharString>
          <CharString index="46">
            -485 -637 485 vlineto
            85 21 20 118 18 81 callsubr
            -1066 vlineto
            -89 return
          </CharString>
          <CharString index="47">
            456 1492 -106 callsubr
            -102 callsubr
            -55 callsubr
            return
          </CharString>
          <CharString index="48">
            -376 rlineto
            56 hlineto
            48 234 78 54 249 16 51 3 rcurveline
            return
          </CharString>
          <CharString index="49">
            1119 rmoveto
            237 191 234 -191 return
          </CharString>
          <CharString index="50">
            86 callgsubr
            -267 -167 rlineto
            return
          </CharString>
          <CharString index="51">
            1567 42 callgsubr
            return
          </CharString>
          <CharString index="52">
            -1120 -83 callgsubr
            return
          </CharString>
          <CharString index="53">
            624 -60 callgsubr
            -505 -2 callsubr
            62 callsubr
            534 vlineto
            210 -138 107 -203 return
          </CharString>
          <CharString index="54">
            1601 rmoveto
            546 132 -546 hlineto
            return
          </CharString>
          <CharString index="55">
            587 59 vlineto
            -118 18 -21 20 86 vvcurveto
            return
          </CharString>
          <CharString index="56">
            -1172 26 callsubr
            return
          </CharString>
          <CharString index="57">
            -52 callsubr
            endchar
          </CharString>
          <CharString index="58">
            rmoveto
            -399 -3 callsubr
            -90 callsubr
            513 59 vlineto
            -97 return
          </CharString>
          <CharString index="59">
            1296 1444 rmoveto
            -1240 hlineto
            -13 return
          </CharString>
          <CharString index="60">
            -218 142 -75 0 209 -286 return
          </CharString>
          <CharString index="61">
            218 -142 75 0 -209 285 return
          </CharString>
          <CharString index="62">
            -75 -61 -56 -74 -75 61 -55 75 hvcurveto
            return
          </CharString>
          <CharString index="63">
            1542 rmoveto
            219 142 return
          </CharString>
          <CharString index="64">
            -68 -55 -50 -67 -67 55 -51 68 return
          </CharString>
          <CharString index="65">
            rmoveto
            566 124 -566 hlineto
            return
          </CharString>
          <CharString index="66">
            -113 -106 callsubr
            return
          </CharString>
          <CharString index="67">
            1006 -106 callsubr
            return
          </CharString>
          <CharString index="68">
            -75 -60 -84 callgsubr
          </CharString>
          <CharString index="69">
            rmoveto
            -162 126 -104 164 -31 vhcurveto
            -175 -31 -104 -82 -1 -117 rrcurveto
            -119 117 -74 167 -3 vhcurveto
            -229 -19 -104 -77 -106 vvcurveto
            -144 189 -97 311 301 231 146 218 185 -141 106 -264 vhcurveto
            -191 hlineto
            -108 -56 32 61 50 39 37 74 18 hvcurveto
            -7 44 36 -3 38 hhcurveto
            247 206 122 205 104 -59 89 -92 41 hvcurveto
            268 -17 0 96 -346 -21 rlineto
            24 -61 -82 16 -88 hhcurveto
            -259 -198 -134 -202 hvcurveto
            275 11 rmoveto
            152 66 100 115 118 71 -104 -157 -153 -71 -99 -110 -113 -76 101 160 vhcurveto
            -76 -911 rmoveto
            88 56 61 104 14 vhcurveto
            184 hlineto
            151 66 -57 -96 -119 -118 -78 -175 -169 -99 78 109 hvcurveto
            endchar
          </CharString>
          <CharString index="70">
            -223 129 -82 157 115 110 50 53 44 vhcurveto
            93 callgsubr
            -3 callgsubr
            return
          </CharString>
          <CharString index="71">
            rmoveto
            172 118 97 152 -7 hvcurveto
            -66 hlineto
            -63 -5 -89 -41 -123 hhcurveto
            -122 -90 42 62 -5 hvcurveto
            return
          </CharString>
          <CharString index="72">
            16 416 rlineto
            -57 hlineto
            -57 -273 -78 -53 -284 -12 rrcurveto
            -236 206 callsubr
            return
          </CharString>
          <CharString index="73">
            -291 -172 311 374 386 171 257 289 -17 callgsubr
          </CharString>
          <CharString index="74">
            -1 -27 -22 -45 hhcurveto
            -27 -29 7 15 -39 hvcurveto
            -33 12 rlineto
            16 -44 -43 return
          </CharString>
          <CharString index="75">
            rmoveto
            991 vlineto
            89 20 22 127 19 vhcurveto
            59 -595 -59 vlineto
            return
          </CharString>
          <CharString index="76">
            1119 rmoveto
            363 363 rlineto
            9 84 callsubr
            return
          </CharString>
          <CharString index="77">
            rmoveto
            74 61 53 71 72 -61 53 -74 -39 callsubr
          </CharString>
          <CharString index="78">
            -966 vlineto
            -343 -70 -154 -212 -139 vhcurveto
            return
          </CharString>
          <CharString index="79">
            487 1444 -20 callsubr
            return
          </CharString>
          <CharString index="80">
            -81 callgsubr
            -50 -51 15 21 return
          </CharString>
          <CharString index="81">
            1485 -34 callgsubr
            return
          </CharString>
          <CharString index="82">
            -163 -121 -74 -106 -54 vhcurveto
            return
          </CharString>
          <CharString index="83">
            rmoveto
            -8 -313 rlineto
            55 hlineto
            return
          </CharString>
          <CharString index="84">
            rmoveto
            276 -773 145 0 265 725 257 -725 146 0 271 747 55 151 28 22 85 16 rlinecurve
            60 -337 -60 vlineto
            105 -13 16 -30 -43 -136 rrcurveto
            -154 -475 -152 478 -42 133 14 31 101 12 rlinecurve
            60 -504 -60 vlineto
            99 -13 15 -31 -42 -132 rrcurveto
            -157 -478 -149 478 -41 133 13 30 106 13 rlinecurve
            60 -535 -60 vlineto
            85 -18 31 -23 43 -122 rrcurveto
            endchar
          </CharString>
          <CharString index="85">
            rmoveto
            -456 330 -293 443 207 205 55 85 117 vhcurveto
            392 vlineto
            90 18 20 124 14 vhcurveto
            59 -565 -59 vlineto
            134 -14 19 -20 -89 vvcurveto
            -384 vlineto
            -40 -50 -85 -26 -103 hhcurveto
            -291 -169 310 375 386 170 257 292 215 138 -138 -238 54 hvcurveto
            56 hlineto
            -11 359 rlineto
            57 -83 -163 43 -224 hhcurveto
            -435 -343 -267 -478 hvcurveto
            endchar
          </CharString>
          <CharString index="86">
            -427 1181 -198 0 -420 -1151 -68 -187 -29 -32 -112 -18 rlinecurve
            -59 421 59 vlineto
            -145 21 -19 39 58 173 rrcurveto
            68 204 474 0 77 -225 53 -154 -23 -39 -137 -19 rlinecurve
            -59 return
          </CharString>
          <CharString index="87">
            rmoveto
            -446 -59 hlineto
            116 -21 26 -32 -1 -105 rrcurveto
            -9 -974 -1 -142 -19 -33 -127 -19 rlinecurve
            -59 408 59 vlineto
            -133 return
          </CharString>
          <CharString index="88">
            1567 rmoveto
            92 callgsubr
            return
          </CharString>
          <CharString index="89">
            rmoveto
            -467 341 -284 437 202 183 52 58 80 vhcurveto
            11 360 rlineto
            -49 callgsubr
            return
          </CharString>
          <CharString index="90">
            1508 rmoveto
            -236 -191 -235 191 -76 0 230 -372 -89 callgsubr
            return
          </CharString>
          <CharString index="91">
            119 callsubr
            68 44 rlineto
            282 181 88 129 317 vvcurveto
            endchar
          </CharString>
          <CharString index="92">
            26 -52 rlineto
            360 154 197 157 352 vvcurveto
            endchar
          </CharString>
          <CharString index="93">
            59 callsubr
            -81 -64 -59 -80 -79 64 -59 81 hvcurveto
            return
          </CharString>
          <CharString index="94">
            1146 rmoveto
            201 105 145 149 21 -1 19 return
          </CharString>
          <CharString index="95">
            16 441 rlineto
            -56 hlineto
            -66 -291 -90 -63 -251 -12 return
          </CharString>
          <CharString index="96">
            1647 505 183 48 callsubr
            return
          </CharString>
          <CharString index="97">
            1218 rmoveto
            606 153 -606 hlineto
            return
          </CharString>
          <CharString index="98">
            595 59 vlineto
            -127 19 -20 22 89 vvcurveto
            return
          </CharString>
          <CharString index="99">
            452 1006 -49 callsubr
            return
          </CharString>
          <CharString index="100">
            344 hmoveto
            58 45 42 57 57 -45 return
          </CharString>
          <CharString index="101">
            18 -19 32 -2 215 callsubr
            return
          </CharString>
          <CharString index="102">
            rmoveto
            143 -31 callgsubr
            -85 return
          </CharString>
          <CharString index="103">
            166 0 209 286 rlineto
            return
          </CharString>
          <CharString index="104">
            -48 0 -54 -102 callsubr
            return
          </CharString>
          <CharString index="105">
            vlineto
            -66 -14 -17 -97 -14 vhcurveto
            -59 return
          </CharString>
          <CharString index="106">
            1681 91 721 rmoveto
            return
          </CharString>
          <CharString index="107">
            735 164 285 rmoveto
            return
          </CharString>
          <CharString index="108">
            rmoveto
            581 106 -581 hlineto
            return
          </CharString>
          <CharString index="109">
            rmoveto
            58 45 42 57 57 -45 return
          </CharString>
          <CharString index="110">
            rmoveto
            374 -1181 192 0 354 1139 343 -1139 195 0 366 1151 60 187 33 33 112 17 rlinecurve
            59 -419 -59 vlineto
            143 -21 14 -37 -49 -172 rrcurveto
            -249 -877 -257 902 -44 156 10 29 133 20 rlinecurve
            59 -589 -59 vlineto
            137 -21 15 -29 -45 -159 rrcurveto
            -252 -898 -261 899 -43 151 16 38 139 19 rlinecurve
            59 -621 -59 vlineto
            103 -16 39 -30 51 -161 rrcurveto
            endchar
          </CharString>
          <CharString index="111">
            rmoveto
            524 130 vlineto
            416 -707 rlineto
            380 56 hlineto
            -70 23 -45 43 -129 218 rrcurveto
            -342 586 216 231 149 157 67 46 120 25 rlinecurve
            59 -455 -59 vlineto
            140 -16 8 -43 -108 -129 rrcurveto
            -348 -417 -129 -1 rlineto
            482 vlineto
            85 21 20 118 18 81 callsubr
            -107 callsubr
            -50 callsubr
          </CharString>
          <CharString index="112">
            15 416 rlineto
            -55 hlineto
            -61 -276 -90 -49 -310 -12 rrcurveto
            -284 -10 786 1319 rlineto
            56 -1090 -47 callgsubr
            72 callgsubr
            endchar
          </CharString>
          <CharString index="113">
            -60 vlineto
            107 -15 17 -19 -69 vvcurveto
            -669 -83 callgsubr
            return
          </CharString>
          <CharString index="114">
            rmoveto
            175 143 65 97 72 hvcurveto
            150 callsubr
            -314 224 -199 288 vhcurveto
            endchar
          </CharString>
          <CharString index="115">
            1163 rmoveto
            85 68 63 82 84 -68 62 -85 -84 -68 -62 -84 -82 68 -63 84 hvcurveto
            return
          </CharString>
          <CharString index="116">
            -83 -48 104 241 238 44 89 81 84 48 -104 -241 -239 -44 -88 -82 hvcurveto
            return
          </CharString>
          <CharString index="117">
            -174 -6 rcurveline
            1176 66 callgsubr
            -107 callsubr
            vlineto
            return
          </CharString>
          <CharString index="118">
            1571 rmoveto
            49 callgsubr
            337 hmoveto
            49 callgsubr
            return
          </CharString>
          <CharString index="119">
            1184 1126 hmoveto
            -12 callsubr
            10 callsubr
            return
          </CharString>
          <CharString index="120">
            -457 346 -289 404 452 297 331 418 return
          </CharString>
          <CharString index="121">
            1542 rmoveto
            74 hlineto
            -124 285 rlineto
            -298 -7 hlineto
            return
          </CharString>
          <CharString index="122">
            1542 rmoveto
            220 142 217 -142 75 0 return
          </CharString>
          <CharString index="123">
            -51 17 23 -32 vhcurveto
            -55 vlineto
            -44 36 77 -33 90 hhcurveto
            endchar
          </CharString>
          <CharString index="124">
            1179 rmoveto
            76 61 55 75 74 -61 56 -76 return
          </CharString>
          <CharString index="125">
            283 102 282 -102 0 62 -261 197 return
          </CharString>
          <CharString index="126">
            65 53 49 -30 callgsubr
            53 -49 65 hvcurveto
            return
          </CharString>
          <CharString index="127">
            -1 -19 -21 vvcurveto
            -149 105 -145 201 vhcurveto
            return
          </CharString>
          <CharString index="128">
            1503 746 94 callsubr
            return
          </CharString>
          <CharString index="129">
            68 55 51 67 67 -55 50 -68 hvcurveto
            endchar
          </CharString>
          <CharString index="130">
            -74 -61 -53 -72 -71 61 -53 74 hvcurveto
            endchar
          </CharString>
          <CharString index="131">
            -62 -36 -40 -29 hvcurveto
            -52 vlineto
            8 18 return
          </CharString>
          <CharString index="132">
            -76 -61 -56 -74 -75 61 -55 76 hvcurveto
            return
          </CharString>
          <CharString index="133">
            vlineto
            -98 -21 -28 -137 -18 vhcurveto
            -59 return
          </CharString>
          <CharString index="134">
            rlineto
            35 -52 -44 22 -56 hhcurveto
            -100 -76 return
          </CharString>
          <CharString index="135">
            -1139 -95 callsubr
            return
          </CharString>
          <CharString index="136">
            1172 108 callgsubr
            return
          </CharString>
          <CharString index="137">
            -166 0 -209 -285 rlineto
            return
          </CharString>
          <CharString index="138">
            -164 -122 -76 -107 -54 vhcurveto
            return
          </CharString>
          <CharString index="139">
            -162 0 -230 -372 rlineto
            return
          </CharString>
          <CharString index="140">
            167 0 208 286 rlineto
            return
          </CharString>
          <CharString index="141">
            82 493 -88 callsubr
            return
          </CharString>
          <CharString index="142">
            -69 -54 -50 -67 -67 54 -51 69 return
          </CharString>
          <CharString index="143">
            60 -1 46 -26 -47 vvcurveto
            -48 return
          </CharString>
          <CharString index="144">
            -59 vlineto
            -63 callsubr
            return
          </CharString>
          <CharString index="145">
            rmoveto
            156 126 67 92 47 hvcurveto
            -100 21 92 -54 112 hhcurveto
            81 67 22 27 38 hvcurveto
            56 vlineto
            -4 -11 -16 -3 -17 hhcurveto
            -57 -44 35 85 hvcurveto
            481 vlineto
            228 -162 101 -259 -255 -175 -105 -136 -73 59 -53 74 76 58 56 71 57 -36 47 -50 16 vhcurveto
            21 45 53 12 58 hhcurveto
            149 92 -68 -181 hvcurveto
            -94 vlineto
            -208 -44 rlineto
            -293 -62 -113 -98 -154 vvcurveto
            -145 121 -100 171 vhcurveto
            -16 291 rmoveto
            111 62 70 182 41 vhcurveto
            94 21 rlineto
            -323 vlineto
            -57 -34 -62 -33 -78 hhcurveto
            -94 -70 61 109 hvcurveto
            return
          </CharString>
          <CharString index="146">
            rmoveto
            -127 -186 -43 -35 -112 -17 rrcurveto
            -59 428 59 vlineto
            -145 21 -4 38 100 162 rrcurveto
            217 346 244 -383 78 -123 -5 -39 -139 -22 rlinecurve
            -59 630 59 vlineto
            -97 25 -44 33 -79 126 rrcurveto
            -335 527 264 385 122 179 44 34 111 17 rlinecurve
            59 -426 -59 vlineto
            144 -21 4 -38 -99 -159 rrcurveto
            -205 -332 -233 366 -81 129 5 34 142 21 rlinecurve
            59 -625 -59 vlineto
            96 -25 40 -34 79 -126 323 -508 rcurveline
            endchar
          </CharString>
          <CharString index="147">
            rmoveto
            -394 277 -174 317 360 214 222 345 3 vhcurveto
            6 859 rlineto
            -2 20 20 -2 19 hhcurveto
            149 87 64 108 94 -68 89 -100 45 hvcurveto
            -59 hlineto
            21 -26 16 -55 -55 vvcurveto
            -120 -85 -97 -186 vhcurveto
            -98 -59 hlineto
            146 -22 18 -22 -119 vvcurveto
            6 -670 rlineto
            -284 1 -150 -163 -239 hhcurveto
            -230 -164 142 306 hvcurveto
            697 vlineto
            92 21 21 142 22 vhcurveto
            59 -613 -59 vlineto
            127 -21 22 -22 -92 vvcurveto
            endchar
          </CharString>
          <CharString index="148">
            rmoveto
            -466 -59 hlineto
            115 -18 27 -34 -4 -104 rrcurveto
            -32 -981 -6 -139 -19 -32 -127 -18 rlinecurve
            -59 404 59 vlineto
            -129 19 -18 31 1 141 rrcurveto
            6 1006 461 -1256 148 0 88 286 351 968 29 -1068 2 -89 -22 -22 -122 -16 rlinecurve
            -59 588 59 vlineto
            -127 17 -18 22 -3 91 rrcurveto
            -31 1066 -2 89 23 24 123 17 rlinecurve
            59 vlineto
            -473 1 -368 -1108 rlineto
            endchar
          </CharString>
          <CharString index="149">
            rmoveto
            277 -231 145 -397 vhcurveto
            -598 -79 callsubr
            -107 callsubr
            137 callsubr
            370 150 vlineto
            357 271 152 297 hvcurveto
            -319 -15 rmoveto
            -216 -124 -135 -253 -11 vhcurveto
            -82 -3 0 733 82 -3 rlineto
            258 -11 119 -142 -212 vvcurveto
            endchar
          </CharString>
          <CharString index="150">
            314 -168 238 -237 115 vhcurveto
            -7 34 37 -4 38 hhcurveto
            172 118 61 124 hvcurveto
            1 97 -73 90 -103 45 rrcurveto
            -59 hlineto
            21 -26 17 -57 -1 -53 rrcurveto
            -125 -81 -91 -157 vhcurveto
            -92 -96 24 -121 179 callsubr
            -32 callgsubr
            53 callsubr
            endchar
          </CharString>
          <CharString index="151">
            1579 rmoveto
            179 97 128 130 18 -2 17 -2 15 hvcurveto
            -64 -4 hlineto
            -91 -84 -65 -125 -123 -85 65 91 vhcurveto
            4 -64 vlineto
            -2 -15 -2 -17 -18 vvcurveto
            -130 98 -128 179 vhcurveto
            return
          </CharString>
          <CharString index="152">
            -56 17 -8 14 59 vvcurveto
            810 vlineto
            -403 -48 0 -54 -105 callsubr
            -583 vlineto
            -58 -34 -67 -43 -88 hhcurveto
            -126 -72 76 148 hvcurveto
            return
          </CharString>
          <CharString index="153">
            626 59 vlineto
            -109 17 -33 34 -57 156 rrcurveto
            -844 308 rmoveto
            208 617 212 -617 rlineto
            return
          </CharString>
          <CharString index="154">
            rmoveto
            -407 -48 0 -54 61 -18 rlineto
            59 -18 9 -13 -59 vvcurveto
            -100 callsubr
            192 callsubr
            endchar
          </CharString>
          <CharString index="155">
            rmoveto
            518 637 -518 vlineto
            -86 -19 -20 -119 -18 vhcurveto
            -59 586 77 callsubr
            return
          </CharString>
          <CharString index="156">
            1119 rmoveto
            236 191 235 -191 76 0 -230 372 32 callsubr
            return
          </CharString>
          <CharString index="157">
            54 43 35 49 49 -43 35 -54 hvcurveto
            -10 hlineto
            -54 -43 -35 -49 -49 43 -35 54 hvcurveto
            return
          </CharString>
          <CharString index="158">
            179 145 64 99 72 vhcurveto
            -101 callgsubr
            219 callsubr
            return
          </CharString>
          <CharString index="159">
            1169 rmoveto
            105 80 79 209 -7 hvcurveto
            -68 hlineto
            -98 -4 -25 -34 return
          </CharString>
          <CharString index="160">
            -117 -276 -288 -263 -162 291 388 vhcurveto
            return
          </CharString>
          <CharString index="161">
            1179 rmoveto
            -56 callgsubr
            63 callsubr
            return
          </CharString>
          <CharString index="162">
            1119 rmoveto
            74 hlineto
            -144 372 rlineto
            -298 -9 hlineto
            return
          </CharString>
          <CharString index="163">
            1827 rmoveto
            -253 -7 hlineto
            303 -279 rlineto
            return
          </CharString>
          <CharString index="164">
            1887 rmoveto
            -180 -96 -127 -130 -18 return
          </CharString>
          <CharString index="165">
            170 callsubr
            227 -363 rlineto
            77 hlineto
            return
          </CharString>
          <CharString index="166">
            1170 rmoveto
            80 65 59 79 80 -65 59 -80 return
          </CharString>
          <CharString index="167">
            -25 13 27 -37 hvcurveto
            -31 23 rlineto
            38 -55 -46 24 return
          </CharString>
          <CharString index="168">
            1261 82 487 163 callsubr
            return
          </CharString>
          <CharString index="169">
            514 59 vlineto
            -109 16 -16 18 69 vvcurveto
            return
          </CharString>
          <CharString index="170">
            450 hmoveto
            76 61 55 75 74 -61 56 -76 return
          </CharString>
          <CharString index="171">
            97 14 vhcurveto
            60 -513 6 callsubr
            return
          </CharString>
          <CharString index="172">
            -28 hvcurveto
            -1 -58 rlineto
            -47 37 78 -32 93 hhcurveto
            return
          </CharString>
          <CharString index="173">
            -29 hvcurveto
            -58 vlineto
            -47 37 78 -32 93 hhcurveto
            endchar
          </CharString>
          <CharString index="174">
            vhcurveto
            334 16 rmoveto
            374 118 275 return
          </CharString>
          <CharString index="175">
            rmoveto
            580 -80 0 51 -580 166 rlineto
            return
          </CharString>
          <CharString index="176">
            rmoveto
            125 116 64 118 115 return
          </CharString>
          <CharString index="177">
            rmoveto
            99 67 68 135 -1 hvcurveto
            -66 hlineto
            return
          </CharString>
          <CharString index="178">
            rmoveto
            99 67 68 135 -2 hvcurveto
            -65 hlineto
            return
          </CharString>
          <CharString index="179">
            hlineto
            -57 -45 -42 -57 -57 45 -42 57 hvcurveto
            return
          </CharString>
          <CharString index="180">
            -209 285 30 callsubr
            return
          </CharString>
          <CharString index="181">
            197 -43 0 -260 -197 rlineto
            return
          </CharString>
          <CharString index="182">
            115 64 118 115 -99 66 return
          </CharString>
          <CharString index="183">
            66 52 50 65 65 -52 49 -66 -65 return
          </CharString>
          <CharString index="184">
            59 vlineto
            -126 19 -21 21 90 vvcurveto
            return
          </CharString>
          <CharString index="185">
            -54 -43 -35 -48 -49 43 -35 54 hvcurveto
            return
          </CharString>
          <CharString index="186">
            -59 vlineto
            120 -18 19 -20 -86 vvcurveto
            return
          </CharString>
          <CharString index="187">
            -80 -65 -59 -80 -79 65 -59 80 hvcurveto
            return
          </CharString>
          <CharString index="188">
            vhcurveto
            60 -587 37 callsubr
            return
          </CharString>
          <CharString index="189">
            1852 68 callsubr
            return
          </CharString>
          <CharString index="190">
            -453 -296 -330 -418 return
          </CharString>
          <CharString index="191">
            -287 vlineto
            -151 -372 rlineto
            return
          </CharString>
          <CharString index="192">
            616 -20 -95 callsubr
            return
          </CharString>
          <CharString index="193">
            -63 -36 -40 -28 hvcurveto
            -52 vlineto
            8 return
          </CharString>
          <CharString index="194">
            hlineto
            225 87 callgsubr
            return
          </CharString>
          <CharString index="195">
            rmoveto
            306 244 167 274 210 -123 144 -260 87 hvcurveto
            -120 41 rlineto
            -170 58 -91 74 130 vvcurveto
            132 95 94 179 181 131 -123 -222 48 vhcurveto
            56 hlineto
            -10 331 rlineto
            53 -73 -147 44 -187 hhcurveto
            -324 -221 -159 -258 -205 135 -142 246 -82 hvcurveto
            121 -40 rlineto
            181 -62 81 -85 -133 vvcurveto
            -146 -111 -99 -170 -201 -173 131 251 -55 vhcurveto
            -55 hlineto
            12 -356 rlineto
            -61 96 174 -48 205 hhcurveto
            return
          </CharString>
          <CharString index="196">
            rmoveto
            -242 340 188 246 83 112 34 28 93 18 rlinecurve
            60 -365 -60 vlineto
            114 -15 12 -23 -67 -102 rrcurveto
            -138 -200 -142 199 -69 100 12 29 118 12 rlinecurve
            60 -533 -60 vlineto
            66 -14 33 -24 63 -89 rrcurveto
            241 -337 -185 -242 -89 -119 -35 -29 -99 -21 rlinecurve
            -59 372 59 vlineto
            -106 15 -19 26 70 106 rrcurveto
            136 199 143 -200 72 -105 -14 -28 -116 -13 rlinecurve
            -59 536 59 vlineto
            -68 15 -35 26 -64 90 rrcurveto
            endchar
          </CharString>
          <CharString index="197">
            rmoveto
            -161 115 -89 183 -56 vhcurveto
            84 -25 rlineto
            123 -38 53 -46 -83 vvcurveto
            -86 -75 -62 -121 -148 -127 104 171 -37 vhcurveto
            -57 hlineto
            10 -272 rlineto
            -47 76 138 -35 151 hhcurveto
            243 190 116 195 165 -103 96 -190 57 hvcurveto
            -84 24 rlineto
            -117 36 -64 41 82 vvcurveto
            84 70 55 119 132 98 -86 -154 34 vhcurveto
            56 hlineto
            -5 256 rlineto
            34 -56 -115 30 -148 hhcurveto
            -260 -168 -114 -192 hvcurveto
            return
          </CharString>
          <CharString index="198">
            321 -185 186 -222 -149 -126 -73 -111 -51 vhcurveto
            1 662 -402 -3 callsubr
            -1282 135 vlineto
            111 126 rlineto
            -83 47 108 -63 137 hhcurveto
            260 212 200 327 hvcurveto
            -287 -26 rmoveto
            -253 -108 -150 -157 -84 -68 44 52 -28 vhcurveto
            603 vlineto
            65 36 66 39 88 hhcurveto
            150 105 -148 -252 hvcurveto
            return
          </CharString>
          <CharString index="199">
            rmoveto
            -93 -82 54 callgsubr
            -69 -6 -230 -68 vvcurveto
            -238 136 -152 254 262 208 216 369 279 -93 169 -140 -102 -62 -94 -122 30 vhcurveto
            150 -32 97 -151 -188 vvcurveto
            -202 -101 -106 -143 -143 -74 98 181 vhcurveto
            70 7 222 56 vvcurveto
            178 -74 84 -145 vhcurveto
            endchar
          </CharString>
          <CharString index="200">
            1678 839 -25 rmoveto
            411 337 337 411 411 -337 337 -411 -411 -337 -337 -411 -411 337 -337 411 hvcurveto
            55 vmoveto
            -377 -309 312 381 381 309 312 377 376 310 -312 -381 -381 -310 -312 -376 hvcurveto
            return
          </CharString>
          <CharString index="201">
            rmoveto
            450 -352 248 -512 vhcurveto
            -582 -79 callsubr
            -107 callsubr
            -51 callgsubr
            -333 -21 -52 callgsubr
            51 callgsubr
            return
          </CharString>
          <CharString index="202">
            rmoveto
            227 -192 123 -282 16 vhcurveto
            218 17 188 104 194 vvcurveto
            224 -218 121 -366 vhcurveto
            -619 -79 callsubr
            -107 callsubr
            196 callsubr
            endchar
          </CharString>
          <CharString index="203">
            rmoveto
            176 121 82 130 -8 hvcurveto
            -67 hlineto
            -54 -5 -92 -35 -125 hhcurveto
            -125 -93 35 54 -5 hvcurveto
            -67 hlineto
            -130 -7 120 -82 177 hhcurveto
            531 -1269 -96 callsubr
          </CharString>
          <CharString index="204">
            176 callsubr
            -26 13 27 -36 hvcurveto
            -31 23 rlineto
            38 -55 -46 24 -60 hhcurveto
            -105 -79 -79 -210 7 hvcurveto
            68 -82 callgsubr
            26 -14 -26 36 hvcurveto
            32 -23 rlineto
            -39 54 47 -23 59 hhcurveto
            return
          </CharString>
          <CharString index="205">
            rmoveto
            11 -716 rlineto
            -207 3 103 -91 164 hhcurveto
            120 104 54 75 53 hvcurveto
            58 vlineto
            -23 -30 -45 -15 -57 hhcurveto
            -97 -63 56 131 2 hvcurveto
            55 13 504 6 119 vhcurveto
            endchar
          </CharString>
          <CharString index="206">
            rmoveto
            162 32 161 callsubr
            endchar
          </CharString>
          <CharString index="207">
            rmoveto
            57 46 42 57 57 -46 43 -57 hvcurveto
            -9 -98 callgsubr
            344 hmoveto
            57 45 42 57 57 -45 43 -57 hvcurveto
            -9 hlineto
            -57 -46 -43 -57 -57 46 -42 57 hvcurveto
            endchar
          </CharString>
          <CharString index="208">
            412 1445 rmoveto
            -85 hlineto
            -232 -121 0 -38 129 32 rlineto
            -506 vlineto
            -56 -24 -16 -98 -11 vhcurveto
            -42 432 42 vlineto
            -97 11 -25 16 56 vvcurveto
            return
          </CharString>
          <CharString index="209">
            406 673 rmoveto
            191 146 145 248 243 -148 149 -184 -191 -145 -146 -247 -243 147 -149 184 hvcurveto
            return
          </CharString>
          <CharString index="210">
            rmoveto
            177 120 82 130 -7 hvcurveto
            -68 hlineto
            -54 -4 -92 -35 -126 hhcurveto
            -125 -93 35 54 -4 hvcurveto
            -68 hlineto
            -130 -7 120 -82 177 hhcurveto
            endchar
          </CharString>
          <CharString index="211">
            -74 -72 -188 7 hvcurveto
            63 hlineto
            89 3 24 30 42 hhcurveto
            28 24 -12 -24 34 hvcurveto
            29 -21 rlineto
            -34 51 43 -22 55 hhcurveto
            endchar
          </CharString>
          <CharString index="212">
            -33 -52 -56 -43 -49 -92 -59 hvcurveto
            73 hlineto
            183 69 68 68 86 vvcurveto
            92 -82 63 -119 vhcurveto
            return
          </CharString>
          <CharString index="213">
            -60 hhcurveto
            -104 -80 -79 -210 7 hvcurveto
            68 hlineto
            99 4 25 34 45 hhcurveto
            31 -63 callgsubr
            return
          </CharString>
          <CharString index="214">
            32 7 32 hhcurveto
            36 callsubr
            -44 -27 -65 -55 -51 17 23 -32 vhcurveto
            -55 vlineto
            -44 return
          </CharString>
          <CharString index="215">
            2 -18 2 -15 hvcurveto
            64 5 hlineto
            91 84 64 124 124 85 -65 -90 vhcurveto
            -5 return
          </CharString>
          <CharString index="216">
            1521 173 1260 rmoveto
            -44 callgsubr
            227 callsubr
            return
          </CharString>
          <CharString index="217">
            1508 rmoveto
            -237 -191 -234 191 -76 0 230 -372 return
          </CharString>
          <CharString index="218">
            1170 rmoveto
            81 64 59 79 80 -64 59 -81 80 callsubr
            return
          </CharString>
          <CharString index="219">
            68 55 50 67 68 -55 50 -68 -68 -55 -50 -68 -67 55 -50 68 hvcurveto
            return
          </CharString>
          <CharString index="220">
            -1 -27 -22 -46 hhcurveto
            -27 -28 7 15 -40 hvcurveto
            -32 12 rlineto
            16 -44 -43 return
          </CharString>
          <CharString index="221">
            -44 10 -49 hhcurveto
            -101 -68 -58 -114 1 hvcurveto
            67 hlineto
            46 1 28 19 return
          </CharString>
          <CharString index="222">
            rmoveto
            282 102 282 -102 0 62 -261 74 callsubr
            endchar
          </CharString>
          <CharString index="223">
            52 vhcurveto
            -177 vlineto
            -94 callsubr
            -57 17 -8 14 59 vvcurveto
            return
          </CharString>
          <CharString index="224">
            1542 rmoveto
            73 hlineto
            -124 285 rlineto
            -297 -7 hlineto
            return
          </CharString>
          <CharString index="225">
            1501 rmoveto
            -113 -82 -56 -65 -40 hvcurveto
            -52 vlineto
            25 28 return
          </CharString>
          <CharString index="226">
            -653 vlineto
            -300 -37 -134 -157 -137 vhcurveto
            34 -49 return
          </CharString>
          <CharString index="227">
            45 14 45 hhcurveto
            65 37 -27 -41 -41 -35 75 callgsubr
            return
          </CharString>
          <CharString index="228">
            0 290 1852 rmoveto
            137 vlineto
            -580 -166 rlineto
            return
          </CharString>
          <CharString index="229">
            vlineto
            65 13 17 64 callsubr
            -74 callsubr
            endchar
          </CharString>
          <CharString index="230">
            1840 rmoveto
            -220 -142 -217 142 -75 0 return
          </CharString>
          <CharString index="231">
            1119 rmoveto
            75 hlineto
            -144 372 rlineto
            -298 -9 hlineto
            return
          </CharString>
          <CharString index="232">
            327 hmoveto
            55 42 35 49 48 -42 35 -55 hvcurveto
            -9 hlineto
            return
          </CharString>
          <CharString index="233">
            114 -1 hvcurveto
            -68 hlineto
            -46 -1 -28 -19 -46 hhcurveto
            -28 -29 return
          </CharString>
          <CharString index="234">
            77 0 -231 372 -161 0 -230 -372 rlineto
            return
          </CharString>
          <CharString index="235">
            0 283 1485 rmoveto
            -88 callgsubr
            -60 vlineto
            return
          </CharString>
          <CharString index="236">
            7 32 hhcurveto
            61 -1 46 -26 -47 vvcurveto
            -48 -45 -27 -65 return
          </CharString>
          <CharString index="237">
            rmoveto
            142 -31 callgsubr
            102 callgsubr
            return
          </CharString>
          <CharString index="238">
            rmoveto
            114 hlineto
            872 1444 rlineto
            -114 hlineto
            return
          </CharString>
          <CharString index="239">
            1852 rmoveto
            137 vlineto
            -579 -166 rlineto
            return
          </CharString>
          <CharString index="240">
            -36 callgsubr
            -138 -95 73 101 vhcurveto
            6 return
          </CharString>
          <CharString index="241">
            -66 hlineto
            -152 -7 118 -97 172 hhcurveto
            endchar
          </CharString>
          <CharString index="242">
            1189 844 hmoveto
            149 callsubr
            return
          </CharString>
          <CharString index="243">
            608 59 vlineto
            -139 18 -21 28 98 vvcurveto
            return
          </CharString>
          <CharString index="244">
            608 59 vlineto
            -138 18 -22 28 98 vvcurveto
            return
          </CharString>
          <CharString index="245">
            86 callgsubr
            -266 -167 rlineto
            endchar
          </CharString>
          <CharString index="246">
            41 hvcurveto
            33 -10 rlineto
            -14 45 44 -10 49 hhcurveto
            return
          </CharString>
          <CharString index="247">
            40 hvcurveto
            34 -10 rlineto
            -14 45 44 -10 49 hhcurveto
            return
          </CharString>
          <CharString index="248">
            3 18 hhcurveto
            64 48 -27 -51 -50 -46 -28 -63 return
          </CharString>
          <CharString index="249">
            -73 -195 6 hvcurveto
            68 hlineto
            90 3 25 31 return
          </CharString>
          <CharString index="250">
            rmoveto
            319 -186 187 -222 -151 return
          </CharString>
          <CharString index="251">
            rmoveto
            186 141 97 187 28 hvcurveto
            -180 71 184 -104 193 hhcurveto
            176 142 68 93 71 hvcurveto
            59 vlineto
            -52 -54 -87 -36 -100 hhcurveto
            -213 -148 158 258 -20 hvcurveto
            634 hlineto
            2 18 2 26 25 vvcurveto
            250 -158 166 -264 -132 -116 -50 -85 -72 vhcurveto
            91 -55 -121 44 -151 hhcurveto
            -239 -163 -105 -128 -71 56 -53 74 78 59 55 72 53 -34 44 -47 17 hvcurveto
            19 43 51 11 57 hhcurveto
            148 101 -82 -190 hvcurveto
            -68 vlineto
            -202 -36 rlineto
            -296 -53 -122 -111 -159 vvcurveto
            -156 125 -92 172 vhcurveto
            782 954 rmoveto
            120 55 -114 -178 hvcurveto
            -16 -1 -14 -13 vvcurveto
            -388 -2 rlineto
            220 3 84 117 127 hhcurveto
            -652 -831 rmoveto
            -93 -61 62 108 114 67 76 180 37 hvcurveto
            100 19 rlineto
            -168 vlineto
            -176 -90 -72 -103 vhcurveto
            endchar
          </CharString>
          <CharString index="252">
            rmoveto
            -1007 hlineto
            -576 -1144 -97 -193 -44 -31 -107 -17 rlinecurve
            -59 429 59 vlineto
            -134 20 -22 43 84 177 rrcurveto
            148 308 443 0 4 -424 rlineto
            -86 -20 -20 -119 -18 vhcurveto
            -59 1068 vlineto
            14 416 rlineto
            -56 hlineto
            -55 -273 -73 -51 -275 -14 rrcurveto
            -201 -9 -6 636 201 -4 109 -4 27 -44 30 -157 rlinecurve
            52 hlineto
            -3 485 rlineto
            -53 hlineto
            -30 -158 -25 -42 -108 -4 rrcurveto
            -200 -4 -6 602 177 -7 256 -13 77 -57 56 -229 rlinecurve
            56 hlineto
            -970 305 rmoveto
            66 hlineto
            6 -688 rlineto
            -404 hlineto
            endchar
          </CharString>
          <CharString index="253">
            rmoveto
            238 -1 -195 152 -401 hhcurveto
            -610 -59 hlineto
            128 -18 19 -21 -91 vvcurveto
            -1066 vlineto
            -88 -19 -22 -128 -20 vhcurveto
            -59 587 59 vlineto
            -118 19 -21 21 84 vvcurveto
            465 192 vlineto
            326 -648 rlineto
            359 56 hlineto
            -58 18 -43 37 -109 208 rrcurveto
            -197 392 174 47 116 124 -1 172 rlinecurve
            -304 -18 rmoveto
            -201 -132 -107 -210 -8 vhcurveto
            -113 -4 0 659 94 -3 rlineto
            250 -9 111 -134 -193 vvcurveto
            return
          </CharString>
          <CharString index="254">
            1426 505 183 rmoveto
            524 130 vlineto
            416 -707 rlineto
            380 56 hlineto
            -70 23 -45 43 -129 218 rrcurveto
            -342 586 216 231 149 157 67 46 120 25 rlinecurve
            59 -455 -59 vlineto
            140 -16 8 -43 -108 -129 rrcurveto
            -348 -417 -129 -1 rlineto
            482 vlineto
            85 21 20 118 18 81 callsubr
            -107 callsubr
            -52 callsubr
            return
          </CharString>
          <CharString index="255">
            -126 -76 -111 -50 vhcurveto
            180 vlineto
            -400 -48 0 -54 61 -18 rlineto
            56 -17 8 -14 -59 vvcurveto
            -1096 vlineto
            -67 -16 -19 -109 -15 vhcurveto
            -59 542 59 vlineto
            -122 17 -17 18 78 vvcurveto
            386 vlineto
            -69 47 100 -49 117 hhcurveto
            257 211 202 325 hvcurveto
            -287 -26 rmoveto
            -249 -107 -154 -157 -84 -70 41 54 -27 vhcurveto
            603 vlineto
            66 35 66 39 88 hhcurveto
            152 104 -152 -248 hvcurveto
            endchar
          </CharString>
          <CharString index="256">
            352 56 hlineto
            -63 17 -45 38 -88 159 rrcurveto
            -238 412 72 66 151 134 56 30 109 22 rlinecurve
            60 -424 -60 vlineto
            123 -20 9 -39 -90 -93 rrcurveto
            -208 -219 -104 -2 0 931 -403 -3 callsubr
            -55 callsubr
            -74 callsubr
            334 vlineto
            107 -1 rlineto
            return
          </CharString>
          <CharString index="257">
            60 vlineto
            -52 -55 -91 -36 -100 hhcurveto
            -207 -161 160 271 231 125 148 184 57 49 -13 -24 38 hvcurveto
            -63 -6 -49 -55 -69 vvcurveto
            -73 58 -58 75 74 60 57 81 136 -125 113 -236 -302 -233 -209 -311 return
          </CharString>
          <CharString index="258">
            rmoveto
            -400 -48 0 -54 60 -18 rlineto
            56 -17 8 -14 -59 vvcurveto
            -636 -76 callgsubr
            -16 18 78 vvcurveto
            -1 539 rlineto
            47 48 108 32 104 hhcurveto
            51 50 -7 -9 26 hvcurveto
            12 20 9 38 37 vvcurveto
            77 -37 63 -86 -96 -86 -79 -176 -106 vhcurveto
            return
          </CharString>
          <CharString index="259">
            rmoveto
            101 68 58 114 -1 hvcurveto
            -67 hlineto
            -46 -1 -28 -19 -46 hhcurveto
            -28 -29 7 12 -40 hvcurveto
            -34 11 rlineto
            13 -46 -43 10 -49 hhcurveto
            -101 -69 -58 -66 callgsubr
            -7 -12 140 callsubr
            endchar
          </CharString>
          <CharString index="260">
            1295 vlineto
            -404 -47 0 -54 -105 callsubr
            -386 vlineto
            70 -47 -100 47 -118 hhcurveto
            -257 -209 -200 -326 hvcurveto
            return
          </CharString>
          <CharString index="261">
            1571 rmoveto
            66 52 49 65 65 -52 49 -66 -65 -52 -49 -65 -65 52 -49 65 hvcurveto
            337 hmoveto
            66 52 49 65 65 -52 49 -66 -65 -52 -49 -65 -65 52 -49 65 hvcurveto
            return
          </CharString>
          <CharString index="262">
            -310 229 -203 305 hvcurveto
            10 80 rmoveto
            -149 -99 172 275 263 85 164 153 148 99 -172 -275 -264 -86 -163 -151 hvcurveto
            return
          </CharString>
          <CharString index="263">
            1501 rmoveto
            -114 -82 -56 -65 -39 hvcurveto
            -52 vlineto
            25 28 49 19 55 hhcurveto
            70 -38 callgsubr
            183 69 68 68 86 vvcurveto
            92 -82 63 -118 vhcurveto
            return
          </CharString>
          <CharString index="264">
            1313 rmoveto
            -120 124 -77 157 173 callsubr
            183 hmoveto
            79 40 56 58 58 41 -56 -79 -81 -41 -54 -58 -58 -40 54 81 vhcurveto
            return
          </CharString>
          <CharString index="265">
            14 -13 17 66 vvcurveto
            624 vlineto
            59 33 64 42 92 hhcurveto
            120 70 -74 -148 hvcurveto
            -503 -2 callsubr
            194 callsubr
            endchar
          </CharString>
          <CharString index="266">
            rmoveto
            98 74 72 188 -7 hvcurveto
            -63 hlineto
            -89 -3 -24 -30 -42 hhcurveto
            -28 -24 12 24 -34 hvcurveto
            -29 21 rlineto
            34 -51 -43 22 -55 hhcurveto
            return
          </CharString>
          <CharString index="267">
            254 107 150 157 83 71 -42 -53 26 vhcurveto
            -604 vlineto
            -65 -35 -67 -40 -88 hhcurveto
            -150 -104 149 251 hvcurveto
            return
          </CharString>
          <CharString index="268">
            149 127 182 vvcurveto
            124 -68 85 -103 -105 -60 -89 -109 vhcurveto
            90 -6 64 -55 -80 vvcurveto
            -80 -64 -56 -84 -22 vhcurveto
            return
          </CharString>
          <CharString index="269">
            12 -47 hhcurveto
            -99 -95 callgsubr
            1 27 21 45 hhcurveto
            27 29 -7 -14 39 hvcurveto
            33 -12 rlineto
            -16 44 43 -12 47 hhcurveto
            endchar
          </CharString>
          <CharString index="270">
            rmoveto
            -321 -104 callgsubr
            74 112 116 callsubr
            153 callsubr
            287 25 rmoveto
            160 callsubr
            return
          </CharString>
          <CharString index="271">
            -60 hlineto
            106 -15 18 -19 -69 vvcurveto
            -669 vlineto
            -69 -18 -18 -106 -16 vhcurveto
            -59 541 59 vlineto
            -122 17 -16 18 78 vvcurveto
            return
          </CharString>
          <CharString index="272">
            190 146 146 247 243 -147 150 -185 -190 -146 -106 callgsubr
            185 hvcurveto
            return
          </CharString>
          <CharString index="273">
            -47 -54 -35 hvcurveto
            1 -45 rlineto
            22 25 44 16 49 hhcurveto
            63 94 callgsubr
            60 58 73 vvcurveto
            77 -72 54 -105 vhcurveto
            return
          </CharString>
          <CharString index="274">
            46 183 55 46 186 10 rrcurveto
            174 6 -527 -872 rlineto
            -54 839 vlineto
            7 336 rlineto
            -56 hlineto
            return
          </CharString>
          <CharString index="275">
            196 129 79 83 1 106 rlinecurve
            118 -93 86 -148 -152 -97 -81 -125 -37 vhcurveto
            38 -17 rlineto
            return
          </CharString>
          <CharString index="276">
            73 139 139 95 -73 -102 vhcurveto
            -5 68 vlineto
            3 18 1 20 20 vvcurveto
            149 -105 145 -201 vhcurveto
            return
          </CharString>
          <CharString index="277">
            1491 rmoveto
            -256 -9 hlineto
            325 -363 rlineto
            80 hlineto
            231 372 rmoveto
            -236 -9 hlineto
            return
          </CharString>
          <CharString index="278">
            78 hhcurveto
            81 52 -51 -76 -87 -49 -74 -136 -133 hvcurveto
            -136 -126 rlineto
            -110 vlineto
            endchar
          </CharString>
          <CharString index="279">
            1 387 rlineto
            259 71 -259 hlineto
            1 201 -279 -33 rlineto
            -168 -125 vlineto
            endchar
          </CharString>
          <CharString index="280">
            158 123 77 120 119 -123 78 -158 -158 -123 -78 -119 vhcurveto
            return
          </CharString>
          <CharString index="281">
            669 vlineto
            69 16 18 109 16 vhcurveto
            60 -514 -60 vlineto
            97 -14 14 -17 -65 vvcurveto
            return
          </CharString>
          <CharString index="282">
            1557 rmoveto
            100 76 73 195 -6 hvcurveto
            -68 hlineto
            -90 -4 -24 -30 -41 hhcurveto
            -29 return
          </CharString>
          <CharString index="283">
            1169 rmoveto
            105 79 79 209 -7 hvcurveto
            -68 hlineto
            -98 -3 -26 -34 -45 hhcurveto
            -30 return
          </CharString>
          <CharString index="284">
            55 42 35 49 48 -42 35 -55 hvcurveto
            -9 hlineto
            -55 -42 -35 -48 -49 42 -35 55 hvcurveto
            return
          </CharString>
          <CharString index="285">
            -908 -714 6 callgsubr
            1059 -744 rmoveto
            165 callsubr
            return
          </CharString>
          <CharString index="286">
            hhcurveto
            83 callsubr
            hvcurveto
            334 16 rmoveto
            374 118 275 288 return
          </CharString>
          <CharString index="287">
            1481 rmoveto
            -201 -105 -145 -149 -20 1 -20 3 -18 hvcurveto
            return
          </CharString>
          <CharString index="288">
            62 48 45 62 61 -48 46 -62 -61 -49 -46 -61 -62 48 -45 62 hvcurveto
            return
          </CharString>
          <CharString index="289">
            52 1220 rmoveto
            125 -1058 hlineto
            -69 -17 -18 -107 -16 vhcurveto
            -59 return
          </CharString>
          <CharString index="290">
            -223 83 -183 131 -129 vhcurveto
            -129 -142 55 -52 131 144 rlineto
            -104 131 169 -57 179 hhcurveto
            452 297 331 418 223 -83 182 -131 129 hvcurveto
            129 142 -56 52 -130 -144 rlineto
            104 -131 -169 57 -179 179 callsubr
            149 116 -93 -151 73 vhcurveto
            -689 -762 rlineto
            -36 102 -19 122 133 vvcurveto
            830 -29 rmoveto
            -374 -118 -276 -287 -149 -116 93 151 -73 vhcurveto
            689 762 rlineto
            36 -102 18 -121 -133 vvcurveto
            endchar
          </CharString>
          <CharString index="291">
            rmoveto
            307 232 213 306 148 -52 123 -87 89 hvcurveto
            92 97 -53 50 -94 -99 rlineto
            67 -90 -117 37 -130 hhcurveto
            -307 -232 -212 -307 -149 53 -124 89 -89 hvcurveto
            -88 -93 52 -50 90 96 rlineto
            -67 90 116 -36 129 hhcurveto
            -243 526 rmoveto
            264 88 164 154 91 73 -63 -111 43 vhcurveto
            -428 -453 rlineto
            -13 58 -8 67 74 vvcurveto
            252 -448 rmoveto
            -90 -72 62 108 -44 hvcurveto
            428 452 rlineto
            13 -57 7 -65 -72 vvcurveto
            -264 -88 -164 -154 vhcurveto
            endchar
          </CharString>
          <CharString index="292">
            rmoveto
            -282 145 -160 197 175 114 131 164 44 vhcurveto
            31 -167 107 -129 192 1 rrcurveto
            231 166 221 325 289 -119 198 -149 -108 -63 -102 -123 42 hvcurveto
            162 -35 118 -161 -198 vvcurveto
            -164 -76 -100 -118 -134 -78 124 277 vhcurveto
            199 -246 -201 vlineto
            -294 -66 -103 -109 -110 -61 111 216 228 69 187 127 97 vhcurveto
            -37 41 rlineto
            -277 -76 -169 -232 -282 vvcurveto
            endchar
          </CharString>
          <CharString index="293">
            rmoveto
            158 99 94 188 95 hvcurveto
            -198 46 70 -79 128 hhcurveto
            85 75 43 61 46 hvcurveto
            55 vlineto
            -12 -16 -24 -8 -25 hhcurveto
            -68 -52 55 263 -70 hvcurveto
            -12 41 233 511 rlineto
            -264 hlineto
            -19 -95 -26 -106 -29 -105 rrcurveto
            211 -67 -103 115 -203 hhcurveto
            -259 -172 -222 -300 -335 175 -177 199 hvcurveto
            -82 536 rmoveto
            253 67 158 112 106 48 -104 -240 43 vhcurveto
            37 -212 rlineto
            -174 -64 -65 -85 -96 hhcurveto
            -118 -70 158 246 hvcurveto
            endchar
          </CharString>
          <CharString index="294">
            rmoveto
            237 164 94 133 81 hvcurveto
            -1 59 rlineto
            -64 -70 -126 -47 -148 hhcurveto
            -155 -1 -98 54 95 vvcurveto
            96 93 57 190 vhcurveto
            86 hlineto
            -36 176 rlineto
            -45 hlineto
            -213 -90 52 98 89 80 62 159 81 69 -12 -25 51 hvcurveto
            -43 -15 -33 -41 -53 vvcurveto
            -60 45 -56 76 66 54 52 70 122 -126 98 -280 -301 -150 -121 -162 -152 135 -95 213 -6 vhcurveto
            -239 -8 -132 -86 -140 vvcurveto
            -162 161 -101 245 vhcurveto
            endchar
          </CharString>
          <CharString index="295">
            rmoveto
            -86 70 -66 95 157 101 119 255 132 vhcurveto
            441 860 68 132 29 24 119 20 rlinecurve
            59 -424 -59 vlineto
            164 -21 9 -19 -64 -137 rrcurveto
            -286 -598 -316 614 -63 123 4 20 160 18 rlinecurve
            59 -632 -59 vlineto
            112 -18 28 -24 62 -114 rrcurveto
            490 -907 -58 -113 -49 -77 -57 -43 rlinecurve
            3 10 1 11 12 vvcurveto
            84 -66 69 -82 -83 -65 -66 -82 vhcurveto
            endchar
          </CharString>
          <CharString index="296">
            -447 331 -285 391 -13 vhcurveto
            -94 -72 -64 -96 -98 vvcurveto
            -116 90 -76 118 93 78 44 64 31 vhcurveto
            58 vlineto
            -17 -16 -28 -13 -34 hhcurveto
            -73 -60 78 105 54 13 50 21 35 hvcurveto
            426 23 276 322 403 vvcurveto
            457 -347 288 -403 83 callsubr
            67 callsubr
            288 -32 callgsubr
            60 callgsubr
          </CharString>
          <CharString index="297">
            212 -108 163 -169 73 hvcurveto
            -11 45 51 -6 51 hhcurveto
            156 105 63 109 92 -70 90 -102 45 hvcurveto
            -59 hlineto
            21 -26 17 -55 -55 vvcurveto
            -117 -1 -84 -84 -151 -78 -65 19 -108 hhcurveto
            -299 -230 -217 -303 -311 220 -202 314 hvcurveto
            10 80 rmoveto
            -153 -95 173 272 268 82 161 156 151 96 -173 -273 -267 -83 -161 -154 hvcurveto
            return
          </CharString>
          <CharString index="298">
            rmoveto
            95 78 43 59 33 hvcurveto
            58 vlineto
            -16 -16 -26 -12 -33 hhcurveto
            -73 -61 88 121 43 10 44 17 36 hvcurveto
            279 26 205 205 288 vvcurveto
            -103 callsubr
            -304 220 -202 298 -7 vhcurveto
            -93 -80 -57 -94 -97 vvcurveto
            -117 92 -74 110 vhcurveto
            -26 542 rmoveto
            -149 -99 172 275 263 85 164 153 148 99 -172 -275 -264 -86 -163 -151 hvcurveto
            endchar
          </CharString>
          <CharString index="299">
            197 163 118 76 107 54 vhcurveto
            -174 vlineto
            407 45 0 54 -64 18 rlineto
            -59 17 -8 14 59 vvcurveto
            755 vlineto
            -2 15 16 -1 18 hhcurveto
            111 82 54 103 1 hvcurveto
            91 -72 91 -105 43 vhcurveto
            -59 hlineto
            20 -25 17 -53 -55 vvcurveto
            -127 -88 -79 -244 -23 vhcurveto
            -119 -11 0 -53 61 -18 rlineto
            59 -18 8 -13 -59 vvcurveto
            -583 vlineto
            -58 -34 -66 -43 -89 hhcurveto
            -126 -71 76 148 hvcurveto
            return
          </CharString>
          <CharString index="300">
            287 hlineto
            78 -7 680 0 vhcurveto
            71 27 66 44 91 hhcurveto
            132 66 -76 -224 -282 -6 -352 -10 -399 hvcurveto
            288 hlineto
            -4 1084 rlineto
            291 -143 98 -197 -167 -116 -85 -113 -39 vhcurveto
            123 -12 -74 69 -119 hhcurveto
            -87 -77 -37 -44 -44 hvcurveto
            -58 vlineto
            7 12 19 5 23 hhcurveto
            76 37 -44 -125 -2 hvcurveto
            -65 -15 -518 -5 -128 vhcurveto
            endchar
          </CharString>
          <CharString index="301">
            500 59 vlineto
            -98 14 -13 17 66 vvcurveto
            557 vlineto
            27 -2 25 -4 23 vhcurveto
            56 35 66 37 90 hhcurveto
            122 71 -74 -148 hvcurveto
            -503 vlineto
            -66 -13 -16 -98 -15 vhcurveto
            -59 514 59 vlineto
            -107 16 -18 18 69 vvcurveto
            532 vlineto
            211 -133 108 -200 -161 -126 -78 -106 -52 vhcurveto
            119 -39 -117 65 -156 hhcurveto
            -162 -119 -78 -105 -52 hvcurveto
            return
          </CharString>
          <CharString index="302">
            rmoveto
            736 vlineto
            257 -11 0 97 -257 -11 rlineto
            223 vlineto
            154 53 61 84 8 7 -1 -1 7 vhcurveto
            -29 -18 -19 -32 -39 vvcurveto
            -63 47 -46 61 60 48 47 62 97 -83 76 -165 -205 -151 -130 -253 vhcurveto
            -128 vlineto
            -125 -47 rlineto
            -48 124 -737 -76 callgsubr
            -17 18 78 vvcurveto
            endchar
          </CharString>
          <CharString index="303">
            619 vlineto
            345 307 136 282 hvcurveto
            -375 657 rmoveto
            -181 -106 -97 -191 -1 vhcurveto
            -151 -1 0 580 104 -3 rlineto
            244 -8 100 -117 -172 vvcurveto
            55 -673 rmoveto
            -210 -147 -112 -252 -8 vhcurveto
            -104 -3 0 657 151 -1 rlineto
            228 -3 124 -126 -194 vvcurveto
            return
          </CharString>
          <CharString index="304">
            1278 -746 rmoveto
            15 416 rlineto
            -56 hlineto
            -60 -276 -91 -49 -309 -12 rrcurveto
            -284 -10 785 1319 rlineto
            56 -1089 -47 callgsubr
            309 12 rrcurveto
            279 9 -784 -1319 rlineto
            -56 vlineto
            -489 725 -52 callgsubr
            51 callgsubr
            endchar
          </CharString>
          <CharString index="305">
            424 -1181 199 0 418 1151 67 187 30 33 112 17 rlinecurve
            59 -421 -59 vlineto
            146 -21 18 -39 -57 -173 rrcurveto
            -301 -899 -315 920 -52 154 23 39 137 19 rlinecurve
            59 -626 -59 vlineto
            108 -17 34 -34 56 -156 rrcurveto
            return
          </CharString>
          <CharString index="306">
            rmoveto
            295 230 206 313 315 -211 199 -309 -300 -230 -205 -313 -315 211 -200 314 hvcurveto
            6 80 rmoveto
            -149 -86 179 269 264 78 162 150 144 87 -179 -270 -264 -79 -161 -145 hvcurveto
            endchar
          </CharString>
          <CharString index="307">
            rmoveto
            314 vlineto
            110 -1 276 -469 rlineto
            349 56 hlineto
            -65 18 -39 43 -93 159 rrcurveto
            -232 384 71 75 154 154 50 26 105 19 rlinecurve
            60 -404 -60 vlineto
            117 -19 11 -38 -93 -102 rrcurveto
            -210 -234 -107 -2 rlineto
            299 122 callsubr
          </CharString>
          <CharString index="308">
            304 -773 147 0 294 746 59 150 25 24 87 16 rlinecurve
            60 -354 -60 vlineto
            121 -15 17 -28 -47 -136 rrcurveto
            -174 -494 -176 497 -46 133 17 28 122 15 rlinecurve
            60 -556 -60 vlineto
            86 -18 26 -24 48 -121 rrcurveto
            return
          </CharString>
          <CharString index="309">
            69 18 19 107 15 vhcurveto
            60 -511 -60 vlineto
            95 -14 13 -16 -66 vvcurveto
            -767 -350 767 vlineto
            66 12 17 96 13 vhcurveto
            60 -495 -60 vlineto
            95 -13 13 -17 -66 vvcurveto
            -767 -350 767 vlineto
            66 12 16 95 14 vhcurveto
            60 -510 6 callsubr
            return
          </CharString>
          <CharString index="310">
            rmoveto
            185 -141 112 -309 vhcurveto
            -164 216 hlineto
            78 16 18 122 16 vhcurveto
            60 -541 6 callsubr
            584 77 callgsubr
            158 -4 77 -87 -143 vvcurveto
            -141 -95 -81 -141 -7 vhcurveto
            -96 -3 rlineto
            467 vlineto
            endchar
          </CharString>
          <CharString index="311">
            1409 1328 418 rmoveto
            227 -192 123 -282 16 vhcurveto
            218 17 188 104 194 vvcurveto
            224 -218 121 -366 vhcurveto
            -619 -79 callsubr
            -107 callsubr
            196 callsubr
            return
          </CharString>
          <CharString index="312">
            489 vlineto
            207 -4 109 -3 28 -43 28 -158 rlinecurve
            53 485 -53 hlineto
            -31 -159 -26 -41 -108 -4 rrcurveto
            -207 -4 0 614 187 -7 256 -12 79 -56 53 -232 rlinecurve
            57 hlineto
            endchar
          </CharString>
          <CharString index="313">
            -9 0 636 237 -4 110 -4 28 -44 29 -157 rlinecurve
            52 485 -52 hlineto
            -32 -158 -26 -42 -109 -4 rrcurveto
            -237 -4 0 602 209 -7 263 -12 80 -58 55 -230 rlinecurve
            56 hlineto
            return
          </CharString>
          <CharString index="314">
            1481 rmoveto
            -201 -106 -145 -149 -20 2 -20 3 -18 hvcurveto
            68 5 hlineto
            102 94 73 140 138 95 -73 -102 vhcurveto
            -5 68 vlineto
            4 18 1 20 20 vvcurveto
            149 -106 145 -200 vhcurveto
            return
          </CharString>
          <CharString index="315">
            -479 rmoveto
            94 85 36 56 38 hvcurveto
            59 vlineto
            -20 -20 -35 -12 -39 hhcurveto
            -58 -51 40 79 87 53 83 144 105 hvcurveto
            -68 -1 rlineto
            -247 -121 -90 -112 -110 vvcurveto
            -107 85 -62 109 vhcurveto
            endchar
          </CharString>
          <CharString index="316">
            -22 13 vhcurveto
            6 19 22 3 23 hhcurveto
            83 48 -36 -91 hvcurveto
            -44 vlineto
            -115 -23 rlineto
            -172 -34 -63 -57 -80 vvcurveto
            -77 67 -54 99 vhcurveto
            18 162 rmoveto
            54 33 35 91 19 vhcurveto
            42 9 rlineto
            -156 vlineto
            return
          </CharString>
          <CharString index="317">
            35 77 hhcurveto
            81 47 -41 -65 -74 -71 -49 -155 -17 hvcurveto
            -48 vlineto
            3 -78 callgsubr
            11 19 -26 hvcurveto
            34 7 26 30 37 vvcurveto
            44 -36 32 -43 -47 -34 -33 -45 -91 102 -74 149 vhcurveto
            return
          </CharString>
          <CharString index="318">
            11 -47 hhcurveto
            -99 -67 -68 -135 1 hvcurveto
            66 57 callgsubr
            44 43 -12 47 hhcurveto
            return
          </CharString>
          <CharString index="319">
            0 -163 1405 rmoveto
            57 46 42 57 57 -46 42 -57 hvcurveto
            -9 72 callsubr
            344 hmoveto
            57 45 42 57 57 -45 42 -57 hvcurveto
            -9 hlineto
            -57 -46 -42 -57 -57 46 -42 57 hvcurveto
            return
          </CharString>
          <CharString index="320">
            rmoveto
            -154 -167 244 -190 hhcurveto
            -161 -106 -114 -247 hvcurveto
            104 hlineto
            173 2 65 70 94 155 167 -243 190 hhcurveto
            161 106 114 246 hvcurveto
            -104 hlineto
            return
          </CharString>
          <CharString index="321">
            1287 1197 hmoveto
            15 416 rlineto
            -55 hlineto
            -61 -276 -90 -49 -310 -12 rrcurveto
            -284 -10 786 1319 rlineto
            56 -1090 -47 callgsubr
            72 callgsubr
            return
          </CharString>
          <CharString index="322">
            146 rrcurveto
            -18 975 816 -1230 239 0 11 1191 2 142 18 33 127 19 rlinecurve
            59 -408 -59 vlineto
            133 -17 19 -33 3 -146 18 -883 rcurveline
            return
          </CharString>
          <CharString index="323">
            -23 12 24 -35 hvcurveto
            -30 20 rlineto
            35 -52 -43 22 -57 hhcurveto
            -99 -76 -73 -195 6 hvcurveto
            67 hlineto
            90 4 24 31 42 hhcurveto
            29 23 -13 -24 35 hvcurveto
            30 -20 rlineto
            -36 51 44 -21 56 hhcurveto
            return
          </CharString>
          <CharString index="324">
            1282 442 rmoveto
            274 -224 153 -368 vhcurveto
            -185 372 44 callgsubr
            -89 vvcurveto
            -107 callsubr
            641 vlineto
            376 208 186 256 hvcurveto
            return
          </CharString>
          <CharString index="325">
            -409 -59 vlineto
            141 -19 9 -40 -87 -162 rrcurveto
            -233 -432 -257 452 -82 143 16 40 132 18 rlinecurve
            59 -618 -59 vlineto
            100 -17 33 -29 92 -152 rrcurveto
            return
          </CharString>
          <CharString index="326">
            -150 156 255 -20 hvcurveto
            646 hlineto
            2 17 2 27 25 vvcurveto
            253 -160 168 -272 -8 callgsubr
            -400 -3 rlineto
            219 83 123 136 vhcurveto
            return
          </CharString>
          <CharString index="327">
            -144 8 -623 rcurveline
            -297 3 -155 -165 -239 hhcurveto
            -228 -163 146 309 hvcurveto
            695 vlineto
            -103 callgsubr
            -59 vlineto
            118 -18 21 -20 -87 vvcurveto
            return
          </CharString>
          <CharString index="328">
            rmoveto
            183 135 115 165 167 -131 108 -182 -183 -135 -115 -165 -166 132 -109 181 hvcurveto
            5 55 rmoveto
            -74 -46 85 142 return
          </CharString>
          <CharString index="329">
            268 1475 rmoveto
            -78 -55 -54 -79 hvcurveto
            -1 -55 12 -39 30 -121 rrcurveto
            68 -275 47 0 69 275 rlineto
            30 120 12 41 54 vvcurveto
            79 -1 -55 54 -78 hhcurveto
            return
          </CharString>
          <CharString index="330">
            57 78 136 -126 96 -217 4 vhcurveto
            205 -54 -206 vlineto
            -281 -17 -212 -205 -298 vvcurveto
            -307 215 -199 278 -7 vhcurveto
            -205 vlineto
            endchar
          </CharString>
          <CharString index="331">
            406 1465 rmoveto
            -162 -32 -149 -127 -182 vvcurveto
            -124 68 -86 103 105 60 90 109 vhcurveto
            -91 6 -63 55 80 vvcurveto
            80 64 56 84 22 vhcurveto
            return
          </CharString>
          <CharString index="332">
            rmoveto
            70 57 50 67 67 -57 50 -70 -71 -56 -50 -67 -67 56 -50 71 hvcurveto
            418 hmoveto
            71 56 50 67 67 -56 50 -71 -70 -57 -50 -67 -67 57 -50 70 hvcurveto
            endchar
          </CharString>
          <CharString index="333">
            -161 hhcurveto
            -2 200 -54 -202 hlineto
            -257 -17 -173 70 callgsubr
            return
          </CharString>
          <CharString index="334">
            366 207 227 347 5 vhcurveto
            8 643 2 142 18 33 123 17 rlinecurve
            60 -403 -59 vlineto
            135 -19 18 -32 3 220 callsubr
            return
          </CharString>
          <CharString index="335">
            1681 792 1542 rmoveto
            85 callgsubr
            -626 -821 rmoveto
            return
          </CharString>
          <CharString index="336">
            -301 rmoveto
            138 90 53 80 81 -90 52 -138 hvcurveto
            -63 hlineto
            -136 -92 -52 -81 -80 92 -53 136 hvcurveto
            52 60 rmoveto
            -41 hlineto
            -45 -26 31 42 43 return
          </CharString>
        <CharString name=".notdef">
          2048 137 -494 rmoveto
          135 2444 -135 79 callgsubr
          409 -2444 rmoveto
          136 2444 -136 hlineto
          410 -2444 rmoveto
          136 2444 -136 79 callgsubr
          endchar
        </CharString>
        <CharString name=".null">
          0 endchar
        </CharString>
        <CharString name="A">
          1433 1244 266 -96 callsubr
        </CharString>
        <CharString name="AE">
          1941 1815 1444 145 callsubr
        </CharString>
        <CharString name="AEacute">
          1941 1193 -92 callsubr
          696 -98 145 callsubr
        </CharString>
        <CharString name="AEmacron">
          1941 964 -53 callsubr
          851 -289 145 callsubr
        </CharString>
        <CharString name="Aacute">
          1433 669 -92 callsubr
          649 -1276 -96 callsubr
        </CharString>
        <CharString name="Abreve">
          1433 713 44 callsubr
          531 -1313 -96 callsubr
        </CharString>
        <CharString name="Abreveacute">
          1433 1002 132 callsubr
          -51 vlineto
          290 -237 96 callsubr
        </CharString>
        <CharString name="Abrevecyrillic">
          1433 713 1578 rmoveto
          190 122 106 126 71 -47 48 101 callgsubr
          -68 -26 -80 hhcurveto
          -82 76 callgsubr
          -65 -47 -48 -71 -126 121 -106 191 hvcurveto
          531 -1312 -96 callsubr
        </CharString>
        <CharString name="Abrevedotbelow">
          1433 713 44 callsubr
          531 -1313 rmoveto
          -21 callsubr
          46 callsubr
          -166 -746 -83 callsubr
        </CharString>
        <CharString name="Abrevegrave">
          1433 423 82 callsubr
          290 -454 96 callsubr
        </CharString>
        <CharString name="Abrevehookabove">
          1433 705 1981 rmoveto
          -83 -64 -32 -35 -37 hvcurveto
          -42 vlineto
          13 24 46 28 callgsubr
          73 38 73 vvcurveto
          72 -85 43 -101 vhcurveto
          8 -446 96 callsubr
        </CharString>
        <CharString name="Abrevetilde">
          1433 835 1800 -28 callgsubr
          -47 -2 -27 -19 -47 hhcurveto
          -28 -28 7 12 -41 hvcurveto
          -33 11 rlineto
          13 -46 -44 11 -49 hhcurveto
          -5 callgsubr
          50 hhcurveto
          -122 -265 96 callsubr
        </CharString>
        <CharString name="Acaron">
          1433 944 -65 callsubr
          -47 callsubr
          33 callsubr
          228 -1574 -96 callsubr
        </CharString>
        <CharString name="Acircumflex">
          1433 506 15 callsubr
          73 callsubr
          810 -1276 -96 callsubr
        </CharString>
        <CharString name="Acircumflexacute">
          1433 1002 1831 -33 callgsubr
          -253 vmoveto
          -57 callsubr
          821 -1285 -96 callsubr
        </CharString>
        <CharString name="Acircumflexdotbelow">
          1433 506 15 callsubr
          73 callsubr
          810 -1276 rmoveto
          -21 callsubr
          46 callsubr
          -166 -746 -83 callsubr
        </CharString>
        <CharString name="Acircumflexgrave">
          1433 423 1831 68 callsubr
          -470 vmoveto
          -57 callsubr
          821 -1285 -96 callsubr
        </CharString>
        <CharString name="Acircumflexhookabove">
          1433 957 -70 callgsubr
          -37 callgsubr
          -9 callgsubr
          821 -1285 -96 callsubr
        </CharString>
        <CharString name="Acircumflextilde">
          1433 835 1779 -28 callgsubr
          -6 callgsubr
          50 hhcurveto
          -412 -281 rmoveto
          -57 callsubr
          821 -1285 -96 callsubr
        </CharString>
        <CharString name="Acyrillic">
          1433 1244 266 -96 callsubr
        </CharString>
        <CharString name="Adblgrave">
          1433 529 56 callsubr
          81 87 callsubr
          309 -1275 -96 callsubr
        </CharString>
        <CharString name="Adieresis">
          1433 545 11 callsubr
          362 -1305 -96 callsubr
        </CharString>
        <CharString name="Adieresismacron">
          1433 422 1827 1 callsubr
          137 -376 rmoveto
          -76 callsubr
          327 hmoveto
          177 callsubr
          377 -1291 -96 callsubr
        </CharString>
        <CharString name="Adotaccent">
          1433 713 -56 callsubr
          531 -1301 -96 callsubr
        </CharString>
        <CharString name="Adotbelow">
          1433 1244 266 rmoveto
          -21 callsubr
          46 callsubr
          -166 -746 -83 callsubr
        </CharString>
        <CharString name="Adotmacron">
          1433 422 1803 1 callsubr
          291 -360 rmoveto
          50 callgsubr
          531 -1283 -96 callsubr
        </CharString>
        <CharString name="Agrave">
          1433 781 14 callsubr
          811 -1554 -96 callsubr
        </CharString>
        <CharString name="Ahookabove">
          1433 742 0 callgsubr
          -39 -42 -82 -51 hvcurveto
          63 hlineto
          161 59 59 58 73 vvcurveto
          77 -71 54 -106 vhcurveto
          502 -1607 -96 callsubr
        </CharString>
        <CharString name="Ainvertedbreve">
          1433 712 57 callsubr
          108 callsubr
          61 callgsubr
          532 -1621 -96 callsubr
        </CharString>
        <CharString name="Alphagreek">
          1433 1244 266 -96 callsubr
        </CharString>
        <CharString name="Alphatonosgreek">
          1433 1244 266 rmoveto
          -21 callsubr
          626 59 vlineto
          -109 17 -33 34 -57 156 rrcurveto
          -1011 806 106 callgsubr
          242 -498 rmoveto
          208 617 212 -617 rlineto
          endchar
        </CharString>
        <CharString name="Amacron">
          1433 440 -53 callsubr
          804 -1467 -96 callsubr
        </CharString>
        <CharString name="Aogonek">
          1433 1145 -482 rmoveto
          94 78 44 64 31 hvcurveto
          58 vlineto
          52 callgsubr
          266 59 hlineto
          -109 17 -33 34 -57 156 rrcurveto
          -21 callsubr
          293 vlineto
          -101 -75 -71 -105 -109 vvcurveto
          -117 90 -76 117 vhcurveto
          -745 1056 rmoveto
          208 617 212 -617 rlineto
          endchar
        </CharString>
        <CharString name="Aring">
          1433 459 1733 rmoveto
          -108 112 -70 142 142 111 69 109 108 -111 37 callgsubr
          51 37 -50 -71 -72 -37 -48 -51 -53 -36 48 72 vhcurveto
          620 -1467 -96 callsubr
        </CharString>
        <CharString name="Aringacute">
          1433 1002 1835 rmoveto
          138 vlineto
          -579 10 callgsubr
          -61 hlineto
          -129 -87 -39 -61 -60 87 -39 129 hvcurveto
          50 45 rmoveto
          -39 hlineto
          -43 -25 22 32 33 25 22 43 hvcurveto
          39 hlineto
          44 23 -22 -33 -32 -24 -22 -43 hvcurveto
          512 -1304 -96 callsubr
        </CharString>
        <CharString name="Aringbelow">
          1433 1244 266 rmoveto
          -21 callsubr
          46 callsubr
          -447 -864 56 callgsubr
          14 callgsubr
        </CharString>
        <CharString name="Atilde">
          1433 830 1557 rmoveto
          100 77 73 195 -7 -72 callgsubr
          -29 20 27 callsubr
          142 callsubr
          42 hhcurveto
          28 -62 callgsubr
          414 -1291 -96 callsubr
        </CharString>
        <CharString name="B">
          1409 1328 418 95 callsubr
        </CharString>
        <CharString name="Bdotaccent">
          1409 699 -19 callsubr
          629 -1149 95 callsubr
        </CharString>
        <CharString name="Bdotbelow">
          204 callsubr
          -308 -574 -83 callsubr
        </CharString>
        <CharString name="Becyrillic">
          1350 1283 418 rmoveto
          252 -217 155 -383 vhcurveto
          -178 549 hlineto
          202 -6 267 -8 75 -46 54 -229 rlinecurve
          55 hlineto
          -13 359 rlineto
          -1088 -79 callsubr
          -107 callsubr
          628 vlineto
          374 224 160 258 hvcurveto
          -320 -4 rmoveto
          -206 -114 -125 -239 -9 vhcurveto
          -105 -3 0 681 105 -3 rlineto
          234 -9 119 -126 -200 vvcurveto
          endchar
        </CharString>
        <CharString name="Betagreek">
          1409 1328 418 95 callsubr
        </CharString>
        <CharString name="Blinebelow">
          204 callsubr
          -590 -760 -73 callsubr
        </CharString>
        <CharString name="C">
          1429 91 726 -18 callsubr
          -34 callsubr
        </CharString>
        <CharString name="Cacute">
          1429 813 -92 callsubr
          -648 -816 -18 callsubr
          -34 callsubr
        </CharString>
        <CharString name="Ccaron">
          1429 1089 123 callsubr
          209 -286 -4 callsubr
          -1070 -1114 -18 callsubr
          -34 callsubr
        </CharString>
        <CharString name="Ccedilla">
          1429 91 726 rmoveto
          -451 319 -280 415 -19 vhcurveto
          -114 -142 -27 callsubr
          65 callsubr
          -75 callgsubr
          63 80 rlineto
          189 5 168 49 76 55 11 360 rcurveline
          -49 callgsubr
          -34 callsubr
        </CharString>
        <CharString name="Ccedillaacute">
          1429 813 -92 callsubr
          -648 -816 rmoveto
          -451 319 -280 415 -19 vhcurveto
          -114 -142 -27 callsubr
          65 callsubr
          -75 callgsubr
          63 80 rlineto
          189 5 168 49 76 55 11 360 rcurveline
          -49 callgsubr
          -34 callsubr
        </CharString>
        <CharString name="Ccircumflex">
          1429 651 -44 callsubr
          -46 callsubr
          -90 callgsubr
          -488 -816 -18 callsubr
          -34 callsubr
        </CharString>
        <CharString name="Cdotaccent">
          1429 857 -19 callsubr
          -766 -841 -18 callsubr
          -34 callsubr
        </CharString>
        <CharString name="Checyrillic">
          1580 1376 -64 callsubr
          -69 callsubr
          -549 vlineto
          -32 -75 -93 -17 -104 hhcurveto
          -220 -102 117 239 hvcurveto
          242 vlineto
          86 19 20 119 18 vhcurveto
          59 -578 79 callsubr
          -234 vlineto
          -314 205 -149 319 151 131 31 43 89 vhcurveto
          -437 vlineto
          -96 -22 -28 -139 -18 vhcurveto
          -59 609 -100 callgsubr
        </CharString>
        <CharString name="Chigreek">
          1406 283 297 39 callsubr
        </CharString>
        <CharString name="D">
          1584 21 callsubr
          endchar
        </CharString>
        <CharString name="Dbar">
          1584 57 704 rmoveto
          147 -515 hlineto
          -89 -77 callsubr
          589 vlineto
          466 391 273 473 450 -352 248 -512 hvcurveto
          -582 -79 callsubr
          -479 -147 vlineto
          1113 -51 -52 callgsubr
          rlineto
          635 292 72 -292 599 vlineto
          95 -3 360 -11 211 -254 -1 -382 rlinecurve
          endchar
        </CharString>
        <CharString name="Dcaron">
          1584 987 -65 callsubr
          -217 142 -76 0 209 -286 33 callsubr
          444 -1094 94 callsubr
          endchar
        </CharString>
        <CharString name="Dcircumflexbelow">
          1584 21 callsubr
          -666 -1181 -66 callsubr
          71 -86 callgsubr
        </CharString>
        <CharString name="Dcommaaccent">
          1584 21 callsubr
          -458 -1191 rmoveto
          143 97 70 109 108 -88 67 -120 -85 86 callsubr
          18 31 129 callsubr
          -54 16 callsubr
        </CharString>
        <CharString name="Ddotaccent">
          1584 756 -56 callsubr
          747 -821 94 callsubr
          endchar
        </CharString>
        <CharString name="Ddotbelow">
          1584 21 callsubr
          -446 -897 -83 callsubr
        </CharString>
        <CharString name="Decyrillic">
          1494 1447 75 rmoveto
          -187 1166 hlineto
          98 21 28 137 18 vhcurveto
          59 -1220 -59 vlineto
          146 -19 40 -33 -4 -142 rrcurveto
          -7 -204 -13 -414 -49 -315 -137 -183 rlinecurve
          -148 hlineto
          -9 -410 rlineto
          63 hlineto
          280 66 85 55 256 hhcurveto
          499 hlineto
          266 76 -65 -270 63 hvcurveto
          64 hlineto
          -497 410 rmoveto
          -675 hlineto
          121 186 48 298 12 428 11 382 rcurveline
          483 hlineto
          endchar
        </CharString>
        <CharString name="Deltagreek">
          1329 43 hmoveto
          1243 151 hlineto
          -523 1297 -197 0 -523 -1296 rlineto
          113 44 rmoveto
          408 1014 388 -1014 rlineto
          endchar
        </CharString>
        <CharString name="Djecyrillic">
          1738 -48 callsubr
          -20 callgsubr
          480 vlineto
          33 56 80 20 89 hhcurveto
          201 124 -142 -275 1 hvcurveto
          1 -276 -105 -234 -197 -131 29 -50 rcurveline
          340 137 233 251 327 vvcurveto
          325 -214 172 -295 -151 -120 -37 -45 -72 vhcurveto
          625 78 callgsubr
        </CharString>
        <CharString name="Dlinebelow">
          1584 21 callsubr
          -728 -1083 -73 callsubr
        </CharString>
        <CharString name="Dzecyrillic">
          1223 585 -25 88 callsubr
          endchar
        </CharString>
        <CharString name="Dzhecyrillic">
          1637 1433 1255 rmoveto
          -103 callgsubr
          -59 vlineto
          118 -18 20 -20 -86 vvcurveto
          -1187 -626 1187 vlineto
          86 21 20 118 18 vhcurveto
          59 -587 37 callsubr
          -107 callsubr
          546 vlineto
          114 24 -34 -288 46 hvcurveto
          63 hlineto
          288 46 24 34 113 hhcurveto
          547 59 hlineto
          -127 19 -20 22 89 vvcurveto
          endchar
        </CharString>
        <CharString name="E">
          1279 1154 1444 -91 callsubr
        </CharString>
        <CharString name="Eacute">
          1279 623 -92 callsubr
          605 -98 -91 callsubr
        </CharString>
        <CharString name="Ebreve">
          1279 667 44 callsubr
          487 -135 -91 callsubr
        </CharString>
        <CharString name="Ecaron">
          1279 898 -65 callsubr
          -47 callsubr
          33 callsubr
          184 -396 -91 callsubr
        </CharString>
        <CharString name="Ecedilla">
          1279 635 -466 69 callsubr
          -100 66 -118 -9 -8 0 -1 -8 hvcurveto
          78 98 rlineto
          6 490 vlineto
          -35 callsubr
          -14 376 rlineto
          -1097 -79 callsubr
          -107 callsubr
          582 vlineto
          -133 -166 -27 callsubr
          65 callsubr
          endchar
        </CharString>
        <CharString name="Ecedillabreve">
          1279 667 44 callsubr
          -32 -2045 69 callsubr
          -100 66 -118 -9 -8 0 -1 -8 hvcurveto
          78 98 rlineto
          6 490 vlineto
          -35 callsubr
          -14 376 rlineto
          -1097 -79 callsubr
          -107 callsubr
          582 vlineto
          -133 -166 -27 callsubr
          65 callsubr
          endchar
        </CharString>
        <CharString name="Ecircumflex">
          1279 460 15 callsubr
          73 callsubr
          766 -98 -91 callsubr
        </CharString>
        <CharString name="Ecircumflexacute">
          1279 956 1831 -33 callgsubr
          -253 vmoveto
          -57 callsubr
          777 -107 -91 callsubr
        </CharString>
        <CharString name="Ecircumflexbelow">
          1279 1154 -91 callgsubr
          -63 callsubr
          -107 callsubr
          1144 vlineto
          -35 callsubr
          -724 -1524 -66 callsubr
          71 -86 callgsubr
        </CharString>
        <CharString name="Ecircumflexdotbelow">
          1279 460 15 callsubr
          73 callsubr
          766 -98 rmoveto
          -1097 -79 callsubr
          -107 callsubr
          1144 vlineto
          -35 callsubr
          -504 -1240 -83 callsubr
        </CharString>
        <CharString name="Ecircumflexgrave">
          1279 377 1831 68 callsubr
          -470 vmoveto
          -57 callsubr
          777 -107 -91 callsubr
        </CharString>
        <CharString name="Ecircumflexhookabove">
          1279 911 -70 callgsubr
          -37 callgsubr
          -9 callgsubr
          777 -107 -91 callsubr
        </CharString>
        <CharString name="Ecircumflextilde">
          1279 788 1779 rmoveto
          102 68 59 114 -1 hvcurveto
          -67 hlineto
          -6 callgsubr
          49 hhcurveto
          -411 -281 rmoveto
          -57 callsubr
          777 -107 -91 callsubr
        </CharString>
        <CharString name="Ecyrillic">
          1449 91 726 -18 callsubr
          -280 -169 287 355 -13 hvcurveto
          646 -11 0 97 -646 -11 rlineto
          368 9 170 243 280 hhcurveto
          -17 callgsubr
        </CharString>
        <CharString name="Edblgrave">
          1279 483 56 callsubr
          81 87 callsubr
          265 -97 -91 callsubr
        </CharString>
        <CharString name="Edieresis">
          1279 499 11 callsubr
          318 -127 -91 callsubr
        </CharString>
        <CharString name="Edotaccent">
          1279 667 -56 callsubr
          487 -123 -91 callsubr
        </CharString>
        <CharString name="Edotbelow">
          1279 1154 -91 callgsubr
          -63 callsubr
          -107 callsubr
          1144 vlineto
          -35 callsubr
          -504 -1240 -83 callsubr
        </CharString>
        <CharString name="Efcyrillic">
          1936 69 718 rmoveto
          -299 280 -188 478 -12 vhcurveto
          -41 vlineto
          -98 -22 -28 -137 -18 vhcurveto
          -59 600 59 vlineto
          -137 18 -21 28 98 vvcurveto
          41 vlineto
          488 12 269 186 304 vvcurveto
          296 -257 195 -500 12 vhcurveto
          42 vlineto
          98 21 28 137 18 vhcurveto
          59 -600 -59 vlineto
          137 -18 22 -28 -98 vvcurveto
          -42 vlineto
          -512 -11 -246 -194 -301 vvcurveto
          320 7 rmoveto
          219 122 188 316 17 vhcurveto
          -855 vlineto
          -304 18 -134 190 223 vvcurveto
          1158 -4 rmoveto
          -220 -131 -189 -306 -18 vhcurveto
          855 vlineto
          312 -17 125 -189 -222 vvcurveto
          endchar
        </CharString>
        <CharString name="Egrave">
          1279 735 14 callsubr
          767 -376 -91 callsubr
        </CharString>
        <CharString name="Ehookabove">
          1279 696 0 callgsubr
          -40 -42 -81 -51 hvcurveto
          63 hlineto
          161 59 59 58 73 vvcurveto
          77 -71 54 -106 vhcurveto
          458 -429 -91 callsubr
        </CharString>
        <CharString name="Einvertedbreve">
          1279 666 57 callsubr
          108 callsubr
          61 callgsubr
          488 -443 -91 callsubr
        </CharString>
        <CharString name="Elcyrillic">
          1503 17 callgsubr
          476 -1180 hlineto
          -90 -21 -21 -126 -19 vhcurveto
          -59 595 77 callsubr
          -75 callsubr
          -1202 -59 vlineto
          150 -18 36 -43 -10 callgsubr
          endchar
        </CharString>
        <CharString name="Emacron">
          1279 394 -53 callsubr
          760 -289 -91 callsubr
        </CharString>
        <CharString name="Emacronacute">
          1279 956 132 callsubr
          -51 vlineto
          -1 -184 1 callsubr
          778 -250 -91 callsubr
        </CharString>
        <CharString name="Emacrongrave">
          1279 377 82 callsubr
          -1 -401 1 callsubr
          778 -250 -91 callsubr
        </CharString>
        <CharString name="Emcyrillic">
          1851 538 1444 41 callsubr
        </CharString>
        <CharString name="Encyrillic">
          -11 callsubr
          -75 callsubr
          -69 callsubr
          -61 callsubr
          -77 callsubr
          -50 callsubr
        </CharString>
        <CharString name="Eogonek">
          1279 1013 -482 rmoveto
          94 78 44 64 32 hvcurveto
          -1 58 rlineto
          52 callgsubr
          156 hlineto
          -35 callsubr
          -14 376 rlineto
          -1097 -79 callsubr
          -107 callsubr
          921 vlineto
          -101 -75 -70 -105 -109 vvcurveto
          -117 89 -76 117 vhcurveto
          endchar
        </CharString>
        <CharString name="Epsilongreek">
          1279 1154 1444 -91 callsubr
        </CharString>
        <CharString name="Epsilontonosgreek">
          1597 1472 -91 callgsubr
          127 -19 20 -22 -89 vvcurveto
          -1066 vlineto
          -89 -20 -22 -127 -19 vhcurveto
          -59 1144 vlineto
          15 416 rlineto
          -56 hlineto
          -58 -273 -77 -53 -285 -12 rrcurveto
          -235 206 callsubr
          -1408 4 -61 callgsubr
          endchar
        </CharString>
        <CharString name="Ercyrillic">
          1364 1283 1022 42 callsubr
        </CharString>
        <CharString name="Ereversedcyrillic">
          1455 119 88 rmoveto
          -61 86 190 -52 185 hhcurveto
          449 335 291 471 449 -323 283 -457 -211 -164 -47 -60 -82 hvcurveto
          -13 -312 rlineto
          56 hlineto
          224 54 135 112 206 hhcurveto
          278 175 -237 -374 13 hvcurveto
          -643 11 0 -97 643 10 rlineto
          -362 -10 -175 -279 -285 hhcurveto
          -188 -154 91 251 -57 hvcurveto
          -56 hlineto
          endchar
        </CharString>
        <CharString name="Escyrillic">
          1429 91 726 -18 callsubr
          -34 callsubr
        </CharString>
        <CharString name="Etagreek">
          -11 callsubr
          -75 callsubr
          -69 callsubr
          -61 callsubr
          -77 callsubr
          -50 callsubr
        </CharString>
        <CharString name="Etatonosgreek">
          1965 823 183 rmoveto
          518 637 -518 -93 callgsubr
          587 77 callsubr
          -75 callsubr
          -587 79 callsubr
          -61 callsubr
          -20 -22 -127 -19 vhcurveto
          -59 -52 callsubr
          -745 889 -61 callgsubr
          endchar
        </CharString>
        <CharString name="Etilde">
          1279 784 1557 rmoveto
          100 77 73 195 -7 -72 callgsubr
          -29 20 27 callsubr
          142 callsubr
          42 hhcurveto
          28 -62 callgsubr
          370 -113 -91 callsubr
        </CharString>
        <CharString name="Etildebelow">
          1279 1154 -91 callgsubr
          -63 callsubr
          -107 callsubr
          1144 vlineto
          -35 callsubr
          -389 -1484 159 callsubr
          -97 -74 -72 -188 6 hvcurveto
          64 hlineto
          89 3 24 30 41 hhcurveto
          29 23 -12 -24 34 hvcurveto
          29 -21 rlineto
          -34 51 44 -22 54 hhcurveto
          endchar
        </CharString>
        <CharString name="F">
          1180 1124 1444 rmoveto
          -1067 -79 callsubr
          -107 callsubr
          137 callsubr
          205 callsubr
        </CharString>
        <CharString name="Fdotaccent">
          1180 649 -56 callsubr
          475 -123 rmoveto
          -1067 -79 callsubr
          -107 callsubr
          137 callsubr
          205 callsubr
        </CharString>
        <CharString name="G">
          1559 91 724 -22 callsubr
        </CharString>
        <CharString name="Gacute">
          1559 810 -92 callsubr
          -645 -818 -22 callsubr
        </CharString>
        <CharString name="Gammagreek">
          1170 1111 1444 rmoveto
          -1054 -79 callsubr
          -107 callsubr
          136 callsubr
          1172 vlineto
          180 -6 256 -9 76 -51 51 -224 rlinecurve
          56 hlineto
          endchar
        </CharString>
        <CharString name="Gbreve">
          1559 854 44 callsubr
          -763 -855 -22 callsubr
        </CharString>
        <CharString name="Gcaron">
          1559 1085 -65 callsubr
          -47 callsubr
          33 callsubr
          -1066 -1116 -22 callsubr
        </CharString>
        <CharString name="Gcircumflex">
          1559 647 15 callsubr
          73 callsubr
          -484 -818 -22 callsubr
        </CharString>
        <CharString name="Gcommaaccent">
          1559 91 724 rmoveto
          -456 330 -293 443 207 205 55 85 117 vhcurveto
          392 vlineto
          90 18 20 124 14 vhcurveto
          59 -565 -59 vlineto
          134 -14 19 -20 -89 vvcurveto
          -384 vlineto
          -40 -50 -85 -26 -103 hhcurveto
          -291 -169 310 375 386 170 257 292 215 138 -138 -238 54 hvcurveto
          56 hlineto
          -11 359 rlineto
          57 -83 -163 43 -224 hhcurveto
          -435 -343 -267 -478 hvcurveto
          755 -1190 130 callsubr
          61 -1 46 -26 -47 vvcurveto
          -48 -45 -27 -65 64 callgsubr
        </CharString>
        <CharString name="Gdotaccent">
          1559 854 -56 callsubr
          -763 -843 -22 callsubr
        </CharString>
        <CharString name="Geacutecyrillic">
          1171 581 -92 callsubr
          604 -98 rmoveto
          -1054 -79 callsubr
          -107 callsubr
          136 callsubr
          25 callgsubr
        </CharString>
        <CharString name="Gecyrillic">
          1171 1111 1444 rmoveto
          -1054 -79 callsubr
          -107 callsubr
          136 callsubr
          25 callgsubr
        </CharString>
        <CharString name="Germandbls">
          1502 505 hmoveto
          1375 vlineto
          195 -7 rlineto
          270 -11 112 -121 -155 vvcurveto
          -136 -82 -90 -153 -24 vhcurveto
          -183 vlineto
          210 -54 114 -130 -172 vvcurveto
          -149 -83 -86 -118 -134 -103 125 206 -36 vhcurveto
          -56 -335 hlineto
          -39 57 126 -38 152 hhcurveto
          223 222 137 265 228 -132 177 -218 65 hvcurveto
          170 17 124 99 154 vvcurveto
          197 -180 129 -403 vhcurveto
          -725 -59 hlineto
          128 -18 19 -21 -89 vvcurveto
          -1070 vlineto
          -89 -19 -21 -128 -18 vhcurveto
          -59 vlineto
          endchar
        </CharString>
        <CharString name="Geupturncyrillic">
          1142 1084 1370 rmoveto
          11 400 rlineto
          -63 hlineto
          -280 -79 -55 -46 -255 hhcurveto
          -586 -79 callsubr
          -107 callsubr
          136 callsubr
          1167 vlineto
          endchar
        </CharString>
        <CharString name="Gmacron">
          1559 581 -53 callsubr
          -490 -1009 -22 callsubr
        </CharString>
        <CharString name="H">
          -11 callsubr
          -75 callsubr
          -69 callsubr
          -61 callsubr
          -77 callsubr
          -50 callsubr
        </CharString>
        <CharString name="Hacyrillic">
          1406 283 297 39 callsubr
        </CharString>
        <CharString name="Hardsigncyrillic">
          1599 1524 442 rmoveto
          274 -224 153 -369 vhcurveto
          -184 372 hlineto
          98 22 28 137 18 vhcurveto
          59 -850 vlineto
          -13 -359 rlineto
          56 hlineto
          44 228 68 48 222 11 rrcurveto
          13 -1172 hlineto
          -96 -21 -27 -136 -18 vhcurveto
          -59 650 vlineto
          377 208 186 256 hvcurveto
          -320 -7 65 callgsubr
          108 -2 rlineto
          225 -3 124 -134 -222 vvcurveto
          endchar
        </CharString>
        <CharString name="Hbar">
          -11 callsubr
          853 147 73 -147 140 vlineto
          90 21 21 126 19 vhcurveto
          59 -69 callsubr
          -146 -637 146 vlineto
          85 21 20 118 18 81 callsubr
          -140 -147 -73 147 -853 vlineto
          -89 -77 callsubr
          -52 callsubr
          593 vmoveto
          266 637 -266 vlineto
          endchar
        </CharString>
        <CharString name="Hbrevebelow">
          -11 callsubr
          -75 callsubr
          -69 callsubr
          -61 callsubr
          -77 callsubr
          -52 callsubr
          320 -631 rmoveto
          186 98 131 134 19 -1 17 -3 16 hvcurveto
          -63 -5 hlineto
          -91 -88 -66 -129 -129 -89 66 91 vhcurveto
          5 -63 67 callgsubr
        </CharString>
        <CharString name="Hcaron">
          1647 1056 -65 callsubr
          -47 callsubr
          -4 callsubr
          -623 -1657 48 callsubr
          -75 callsubr
          -69 callsubr
          -61 callsubr
          -77 callsubr
          -50 callsubr
        </CharString>
        <CharString name="Hcedilla">
          -11 callsubr
          -75 callsubr
          -69 callsubr
          -61 callsubr
          -77 callsubr
          263 vlineto
          -129 -166 rlineto
          -50 vlineto
          4 10 20 3 17 hhcurveto
          64 48 -27 -51 -50 -46 -28 -63 -49 -52 15 21 -28 hvcurveto
          -1 -58 rlineto
          -47 38 77 -32 93 hhcurveto
          126 75 callsubr
          -119 -9 -9 0 -1 -8 hvcurveto
          79 104 rlineto
          249 59 hlineto
          -118 18 -21 20 86 vvcurveto
          endchar
        </CharString>
        <CharString name="Hcircumflex">
          1647 618 1541 rmoveto
          220 142 217 -142 75 0 -209 286 -166 0 -209 -286 rlineto
          -41 -1358 48 callsubr
          -75 callsubr
          -69 callsubr
          -61 callsubr
          -77 callsubr
          -50 callsubr
        </CharString>
        <CharString name="Hdieresis">
          1647 656 1570 rmoveto
          76 callsubr
          -85 callgsubr
          337 hmoveto
          76 callsubr
          -85 callgsubr
          -488 -1387 48 callsubr
          -75 callsubr
          -69 callsubr
          -61 callsubr
          -77 callsubr
          -50 callsubr
        </CharString>
        <CharString name="Hdotaccent">
          1647 825 -56 callsubr
          -320 -1384 48 callsubr
          -75 callsubr
          -69 callsubr
          -61 callsubr
          -77 callsubr
          -50 callsubr
        </CharString>
        <CharString name="Hdotbelow">
          -11 callsubr
          -75 callsubr
          -69 callsubr
          -61 callsubr
          -77 callsubr
          -52 callsubr
          320 -355 rmoveto
          35 callsubr
          22 callsubr
        </CharString>
        <CharString name="I">
          710 505 -64 callsubr
          -93 callsubr
          -107 callsubr
          -81 callsubr
        </CharString>
        <CharString name="IAcyrillic">
          1415 141 1030 rmoveto
          -195 135 -112 180 -41 vhcurveto
          -215 -364 -121 -200 -34 -40 -65 -22 rlinecurve
          -56 338 vlineto
          374 643 rlineto
          168 -460 hlineto
          -84 -19 -21 -120 -19 vhcurveto
          -59 587 59 vlineto
          -126 20 -21 22 88 vvcurveto
          1065 vlineto
          90 21 22 126 18 vhcurveto
          60 -636 vlineto
          -375 -197 -159 -255 hvcurveto
          307 14 rmoveto
          203 116 117 227 8 vhcurveto
          110 3 0 -664 -114 2 rlineto
          -201 4 -138 122 205 vvcurveto
          endchar
        </CharString>
        <CharString name="IJ">
          1420 505 -64 callsubr
          -93 callsubr
          -107 callsubr
          -9 callsubr
          710 75 -32 callsubr
          -63 callsubr
          -29 callsubr
          -15 callsubr
        </CharString>
        <CharString name="IJacute">
          1420 311 -92 callsubr
          784 hmoveto
          85 callgsubr
          -441 -1353 -82 callsubr
          -93 callsubr
          -107 callsubr
          -9 callsubr
          710 75 -32 callsubr
          -63 callsubr
          -29 callsubr
          -15 callsubr
        </CharString>
        <CharString name="IUcyrillic">
          2309 505 183 rmoveto
          518 228 vlineto
          -449 10 338 -277 394 hhcurveto
          449 294 328 421 hvcurveto
          460 1 -345 285 -399 hhcurveto
          -430 -286 -299 -394 -25 hvcurveto
          -229 485 hlineto
          85 21 21 118 17 81 callsubr
          -107 callsubr
          -52 callsubr
          980 -125 rmoveto
          -261 -160 287 392 377 116 272 285 261 162 -286 -392 -1 hvcurveto
          -377 -1 -117 -273 -284 hhcurveto
          endchar
        </CharString>
        <CharString name="Iacute">
          710 311 -92 callsubr
          268 -1353 -82 callsubr
          -93 callsubr
          -107 callsubr
          -81 callsubr
        </CharString>
        <CharString name="Ibreve">
          710 355 1579 rmoveto
          179 97 128 130 18 -2 17 -2 15 hvcurveto
          -64 -4 hlineto
          -91 -84 -65 -125 -123 -85 65 91 vhcurveto
          4 -64 vlineto
          -2 -15 -1 -17 -18 vvcurveto
          -130 97 -128 179 vhcurveto
          150 -1390 -82 callsubr
          -93 callsubr
          -107 callsubr
          -81 callsubr
        </CharString>
        <CharString name="Icaron">
          710 586 -65 callsubr
          -47 callsubr
          33 callsubr
          -153 -1651 -82 callsubr
          -93 callsubr
          -107 callsubr
          -81 callsubr
        </CharString>
        <CharString name="Icircumflex">
          710 149 -44 callsubr
          217 -142 75 0 -208 285 -167 0 -209 -285 rlineto
          429 -1353 -82 callsubr
          -93 callsubr
          -107 callsubr
          -81 callsubr
        </CharString>
        <CharString name="Icyrillic">
          710 505 -64 callsubr
          -93 callsubr
          -107 callsubr
          -81 callsubr
        </CharString>
        <CharString name="Idblgrave">
          710 171 56 callsubr
          81 87 callsubr
          -72 -1352 -82 callsubr
          -93 callsubr
          -107 callsubr
          -81 callsubr
        </CharString>
        <CharString name="Idieresis">
          710 187 11 callsubr
          -19 -1382 -82 callsubr
          -93 callsubr
          -107 callsubr
          -81 callsubr
        </CharString>
        <CharString name="Idieresisacute">
          710 645 -69 callgsubr
          136 -214 rmoveto
          -76 callsubr
          327 hmoveto
          177 callsubr
          -4 -1368 -82 callsubr
          -93 callsubr
          -107 callsubr
          -81 callsubr
        </CharString>
        <CharString name="Idotaccent">
          710 355 -56 callsubr
          150 -1378 -82 callsubr
          -93 callsubr
          -107 callsubr
          -81 callsubr
        </CharString>
        <CharString name="Idotbelow">
          710 505 -64 callsubr
          -93 callsubr
          -107 callsubr
          -9 callsubr
          -149 -361 -83 callsubr
        </CharString>
        <CharString name="Iecyrillic">
          1279 1154 1444 -91 callsubr
        </CharString>
        <CharString name="Igrave">
          710 423 14 callsubr
          430 -1631 -82 callsubr
          -93 callsubr
          -107 callsubr
          -81 callsubr
        </CharString>
        <CharString name="Ihookabove">
          710 384 1873 rmoveto
          -99 -72 -47 -54 -35 hvcurveto
          -45 vlineto
          22 26 43 16 50 hhcurveto
          63 94 callgsubr
          59 58 73 vvcurveto
          77 -71 54 -106 vhcurveto
          121 -1684 -82 callsubr
          -93 callsubr
          -107 callsubr
          -81 callsubr
        </CharString>
        <CharString name="Iicyrillic">
          1670 505 183 rmoveto
          56 vlineto
          660 852 rlineto
          -908 -93 callgsubr
          587 77 callsubr
          -75 callsubr
          -587 79 callsubr
          -55 vlineto
          -660 -853 rlineto
          908 vlineto
          85 21 20 118 18 81 callsubr
          -107 callsubr
          -50 callsubr
        </CharString>
        <CharString name="Iinvertedbreve">
          710 354 1887 rmoveto
          -180 -95 -127 -130 -18 1 -18 2 -15 hvcurveto
          64 5 hlineto
          91 85 64 123 124 85 -65 -90 vhcurveto
          -5 64 vlineto
          2 16 2 17 18 vvcurveto
          130 -97 127 -180 vhcurveto
          151 -1698 -82 callsubr
          -93 callsubr
          -107 callsubr
          -81 callsubr
        </CharString>
        <CharString name="Iishortcyrillic">
          1670 835 80 callgsubr
          101 callgsubr
          -14 callgsubr
          -330 -1395 rmoveto
          56 vlineto
          660 852 rlineto
          -908 -93 callgsubr
          587 77 callsubr
          -75 callsubr
          -587 79 callsubr
          -55 vlineto
          -660 -853 rlineto
          908 vlineto
          85 21 20 118 18 81 callsubr
          -107 callsubr
          -50 callsubr
        </CharString>
        <CharString name="Imacron">
          710 82 -53 callsubr
          423 -1544 -82 callsubr
          -93 callsubr
          -107 callsubr
          -81 callsubr
        </CharString>
        <CharString name="Iocyrillic">
          1279 499 11 callsubr
          318 -127 -91 callsubr
        </CharString>
        <CharString name="Iogonek">
          710 505 -64 callsubr
          -93 callsubr
          -107 callsubr
          279 vlineto
          -100 -75 -71 -105 -109 vvcurveto
          -117 90 -76 117 93 79 44 64 31 vhcurveto
          -1 58 rlineto
          -17 -16 -28 -13 -33 hhcurveto
          -74 -59 82 110 61 15 57 25 36 hvcurveto
          248 59 hlineto
          -127 19 -20 22 89 vvcurveto
          endchar
        </CharString>
        <CharString name="Iotadieresisgreek">
          710 187 11 callsubr
          -19 -1382 -82 callsubr
          -93 callsubr
          -107 callsubr
          -81 callsubr
        </CharString>
        <CharString name="Iotagreek">
          710 505 -64 callsubr
          -93 callsubr
          -107 callsubr
          -81 callsubr
        </CharString>
        <CharString name="Iotatonosgreek">
          1027 823 -64 callsubr
          -93 callsubr
          -107 callsubr
          -9 callsubr
          -745 883 -61 callgsubr
          endchar
        </CharString>
        <CharString name="Itilde">
          710 473 -67 callgsubr
          -35 hvcurveto
          -29 20 27 callsubr
          142 callsubr
          42 hhcurveto
          28 24 -13 -24 35 hvcurveto
          29 -20 rlineto
          -36 52 43 -21 57 hhcurveto
          32 -1368 -82 callsubr
          -93 callsubr
          -107 callsubr
          -81 callsubr
        </CharString>
        <CharString name="Itildebelow">
          710 505 -64 callsubr
          -93 callsubr
          -107 callsubr
          -9 callsubr
          -33 -605 rmoveto
          97 74 72 188 -6 hvcurveto
          -64 hlineto
          -89 -3 -24 -30 -41 hhcurveto
          -29 -23 12 24 -34 hvcurveto
          -29 21 rlineto
          34 -51 -43 22 -56 hhcurveto
          -97 104 callsubr
        </CharString>
        <CharString name="J">
          710 505 264 -32 callsubr
          -63 callsubr
          -29 callsubr
          -15 callsubr
        </CharString>
        <CharString name="Jacute">
          710 311 -92 callsubr
          268 -1278 -32 callsubr
          -63 callsubr
          -29 callsubr
          -15 callsubr
        </CharString>
        <CharString name="Jcircumflex">
          710 148 15 callsubr
          -208 285 -167 0 -209 -285 rlineto
          429 -1278 -32 callsubr
          -63 callsubr
          -29 callsubr
          -15 callsubr
        </CharString>
        <CharString name="Jecyrillic">
          710 505 264 -32 callsubr
          -63 callsubr
          -29 callsubr
          -15 callsubr
        </CharString>
        <CharString name="K">
          1426 505 183 4 callsubr
        </CharString>
        <CharString name="Kaacutecyrillic">
          1426 721 -92 callsubr
          -142 -1359 4 callsubr
        </CharString>
        <CharString name="Kacute">
          1426 721 -92 callsubr
          -142 -1359 4 callsubr
        </CharString>
        <CharString name="Kacyrillic">
          1426 505 183 4 callsubr
        </CharString>
        <CharString name="Kappagreek">
          1426 505 183 4 callsubr
        </CharString>
        <CharString name="Kcaron">
          1426 996 -65 callsubr
          -43 callgsubr
          -564 -1657 4 callsubr
        </CharString>
        <CharString name="Kcommaaccent">
          147 callsubr
          261 -649 -5 callsubr
          86 callsubr
          18 31 7 32 hhcurveto
          61 -1 46 -26 -47 vvcurveto
          -48 -45 -27 -64 -55 16 callsubr
        </CharString>
        <CharString name="Kdotbelow">
          147 callsubr
          273 -355 -83 callsubr
        </CharString>
        <CharString name="Klinebelow">
          147 callsubr
          -9 -541 -73 callsubr
        </CharString>
        <CharString name="L">
          12 callsubr
          endchar
        </CharString>
        <CharString name="Lacute">
          1184 312 -92 callsubr
          888 -1542 rmoveto
          -12 callsubr
          10 callsubr
          endchar
        </CharString>
        <CharString name="Lambdagreek">
          1420 1228 261 rmoveto
          -419 1186 -198 0 -414 -1181 -57 -162 -39 -30 -103 -15 rlinecurve
          -59 417 59 vlineto
          -147 20 -17 41 49 152 rrcurveto
          302 917 311 -936 47 -142 -37 -34 -127 -18 rlinecurve
          -59 627 59 vlineto
          -98 15 -41 29 -56 158 rrcurveto
          endchar
        </CharString>
        <CharString name="Lcaron">
          1184 902 1125 rmoveto
          199 413 -213 0 -45 -413 rlineto
          283 -1125 rmoveto
          -12 callsubr
          10 callsubr
          endchar
        </CharString>
        <CharString name="Lcircumflexbelow">
          12 callsubr
          348 -456 -66 callsubr
          71 -86 callgsubr
        </CharString>
        <CharString name="Lcommaaccent">
          12 callsubr
          556 -466 -5 callsubr
          24 callsubr
          107 callsubr
          36 77 -33 90 hhcurveto
          endchar
        </CharString>
        <CharString name="Ldot">
          12 callsubr
          837 11 callgsubr
        </CharString>
        <CharString name="Ldotbelow">
          12 callsubr
          568 -172 -83 callsubr
        </CharString>
        <CharString name="Ldotbelowmacron">
          1184 83 1601 rmoveto
          547 132 -547 hlineto
          1043 -1733 rmoveto
          -12 callsubr
          10 callsubr
          568 -172 -83 callsubr
        </CharString>
        <CharString name="Ljecyrillic">
          2097 17 callgsubr
          421 -1180 hlineto
          -90 -21 -21 -126 -19 vhcurveto
          -59 641 vlineto
          376 208 186 256 274 -225 153 -367 hvcurveto
          -185 372 hlineto
          98 21 28 138 18 vhcurveto
          59 -1159 -59 vlineto
          150 -19 36 -42 -10 callgsubr
          1693 306 65 callgsubr
          109 -2 rlineto
          224 -3 124 -134 -222 vvcurveto
          endchar
        </CharString>
        <CharString name="Llinebelow">
          12 callsubr
          286 -358 -73 callsubr
        </CharString>
        <CharString name="Lslash">
          1184 57 623 rmoveto
          147 42 rlineto
          -476 vlineto
          -89 -77 callsubr
          1069 vlineto
          -12 callsubr
          rrcurveto
          -174 -6 0 680 342 95 0 78 -342 -95 rlineto
          418 66 callgsubr
          -512 vlineto
          -147 -41 rlineto
          endchar
        </CharString>
        <CharString name="M">
          1851 538 1444 41 callsubr
        </CharString>
        <CharString name="Macute">
          1851 878 -92 callsubr
          -266 -98 41 callsubr
        </CharString>
        <CharString name="Mdotaccent">
          1851 922 -19 callsubr
          -384 -123 41 callsubr
        </CharString>
        <CharString name="Mdotbelow">
          1851 538 1444 rmoveto
          -466 -59 hlineto
          115 -18 27 -34 -4 -104 rrcurveto
          -32 -981 -6 -139 -19 -32 -127 -18 rlinecurve
          -59 404 59 vlineto
          -129 19 -18 31 1 141 rrcurveto
          6 1006 461 -1256 148 0 88 286 351 968 29 -1068 2 -89 -22 -22 -122 -16 rlinecurve
          -59 588 59 vlineto
          -127 17 -18 22 -3 91 rrcurveto
          -31 1066 -2 89 23 24 123 17 rlinecurve
          59 vlineto
          -473 1 -368 -1108 rlineto
          -113 -509 -83 callsubr
        </CharString>
        <CharString name="Mugreek">
          1851 538 1444 41 callsubr
        </CharString>
        <CharString name="N">
          1503 -28 callsubr
          -6 callsubr
          endchar
        </CharString>
        <CharString name="Nacute">
          1503 736 -92 callsubr
          -175 -98 -20 callsubr
          -6 callsubr
          endchar
        </CharString>
        <CharString name="Ncaron">
          1503 1011 -65 callsubr
          -217 142 -76 0 209 -286 33 callsubr
          -596 -396 -20 callsubr
          -6 callsubr
          endchar
        </CharString>
        <CharString name="Ncircumflexbelow">
          1503 -28 callsubr
          -6 callsubr
          -727 -762 -66 callsubr
          71 -86 callgsubr
        </CharString>
        <CharString name="Ncommaaccent">
          1503 -28 callsubr
          -6 callsubr
          -519 -772 rmoveto
          143 97 70 109 108 -88 67 -120 -85 86 callsubr
          18 31 129 callsubr
          -54 16 callsubr
        </CharString>
        <CharString name="Ndotaccent">
          1503 780 1567 rmoveto
          68 55 51 67 67 -55 50 -68 35 callsubr
          hvcurveto
          -293 -123 -20 callsubr
          -6 callsubr
          endchar
        </CharString>
        <CharString name="Ndotbelow">
          1503 -28 callsubr
          -6 callsubr
          -507 -478 -83 callsubr
        </CharString>
        <CharString name="Ngrave">
          1503 848 14 callsubr
          -13 -376 -20 callsubr
          -6 callsubr
          endchar
        </CharString>
        <CharString name="Njecyrillic">
          2204 505 183 rmoveto
          561 545 -561 vlineto
          -86 -20 -20 -118 -18 vhcurveto
          -59 633 vlineto
          377 206 175 242 259 -225 143 -367 hvcurveto
          -185 422 hlineto
          98 22 28 137 18 vhcurveto
          59 -598 -60 vlineto
          118 -17 20 -21 -85 vvcurveto
          -441 -545 441 vlineto
          85 21 20 118 18 81 callsubr
          -107 callsubr
          -52 callsubr
          1304 228 rmoveto
          -200 -106 -129 -234 -8 vhcurveto
          -118 -3 0 675 110 -1 rlineto
          224 -4 124 -124 -206 vvcurveto
          endchar
        </CharString>
        <CharString name="Nlinebelow">
          1503 -28 callsubr
          -6 callsubr
          -789 -664 -73 callsubr
        </CharString>
        <CharString name="Ntilde">
          1503 898 -67 callgsubr
          -35 hvcurveto
          -29 20 27 callsubr
          -53 callgsubr
          28 24 -54 callgsubr
          -411 -113 -20 callsubr
          -6 callsubr
          endchar
        </CharString>
        <CharString name="Nugreek">
          1503 -28 callsubr
          -6 callsubr
          endchar
        </CharString>
        <CharString name="O">
          -1 callsubr
          13 callsubr
          -101 callsubr
        </CharString>
        <CharString name="OE">
          2087 91 717 rmoveto
          -430 336 -312 422 vhcurveto
          148 106 25 143 hhcurveto
          764 hlineto
          15 416 rlineto
          -56 hlineto
          -58 -273 -74 -54 -279 -12 rrcurveto
          -227 -8 0 636 233 -4 108 -4 28 -44 29 -157 rlinecurve
          52 486 -52 hlineto
          -32 -159 -26 -42 -107 -4 rrcurveto
          -233 -4 0 602 203 -7 259 -12 78 -58 55 -229 rlinecurve
          56 hlineto
          -13 375 rlineto
          -720 hlineto
          -162 -76 25 -151 hhcurveto
          -467 -302 -327 -425 hvcurveto
          326 8 rmoveto
          381 157 281 307 56 52 -9 -18 40 vhcurveto
          -1279 vlineto
          -16 -43 -54 -8 -56 hhcurveto
          -284 -175 280 388 hvcurveto
          endchar
        </CharString>
        <CharString name="Oacute">
          228 callsubr
          13 callsubr
          -101 callsubr
        </CharString>
        <CharString name="Obreve">
          1681 836 1579 rmoveto
          179 27 callgsubr
          -123 -85 65 91 vhcurveto
          4 -64 vlineto
          -2 -15 -2 -17 -18 vvcurveto
          -130 97 -128 180 vhcurveto
          -745 -858 -104 callsubr
          -101 callsubr
        </CharString>
        <CharString name="Ocaron">
          1681 1067 -65 callsubr
          -47 callsubr
          -4 callsubr
          -1048 -1119 -104 callsubr
          -101 callsubr
        </CharString>
        <CharString name="Ocircumflex">
          1681 629 -44 callsubr
          -46 callsubr
          30 callsubr
          -466 -821 -104 callsubr
          -101 callsubr
        </CharString>
        <CharString name="Ocircumflexacute">
          1681 1125 1831 -33 callgsubr
          -253 vmoveto
          -57 callsubr
          -455 -830 -104 callsubr
          -101 callsubr
        </CharString>
        <CharString name="Ocircumflexdotbelow">
          1681 629 -44 callsubr
          -46 callsubr
          30 callsubr
          -466 -821 -104 callsubr
          457 -347 288 -403 83 callsubr
          67 callsubr
          288 -32 callgsubr
          53 callsubr
          421 -909 rmoveto
          -43 callsubr
          -102 callgsubr
        </CharString>
        <CharString name="Ocircumflexgrave">
          1681 546 1831 68 callsubr
          -470 vmoveto
          -57 callsubr
          -455 -830 -104 callsubr
          -101 callsubr
        </CharString>
        <CharString name="Ocircumflexhookabove">
          1681 1080 1931 rmoveto
          -79 -62 -32 -35 -34 hvcurveto
          -42 vlineto
          14 23 -37 callgsubr
          -71 -16 hvcurveto
          51 -32 rlineto
          127 24 70 38 73 vvcurveto
          72 -82 43 -97 vhcurveto
          -534 -433 rmoveto
          -57 callsubr
          -455 -830 -104 callsubr
          -101 callsubr
        </CharString>
        <CharString name="Ocircumflextilde">
          1681 957 1779 rmoveto
          102 68 59 126 callsubr
          6 13 -40 hvcurveto
          -33 10 rlineto
          14 -46 -44 10 -49 hhcurveto
          -101 -68 -59 -114 1 hvcurveto
          67 hlineto
          46 1 28 19 47 hhcurveto
          28 28 -6 -13 139 callsubr
          -411 -281 rmoveto
          -57 callsubr
          -455 -830 -104 callsubr
          -101 callsubr
        </CharString>
        <CharString name="Ocyrillic">
          -1 callsubr
          13 callsubr
          -101 callsubr
        </CharString>
        <CharString name="Odblgrave">
          1681 652 56 callsubr
          80 hlineto
          226 87 callgsubr
          -967 -820 -104 callsubr
          -101 callsubr
        </CharString>
        <CharString name="Odieresis">
          1681 667 154 callsubr
          -913 -850 -104 callsubr
          -101 callsubr
        </CharString>
        <CharString name="Odieresismacron">
          1681 545 1827 1 callsubr
          136 -376 rmoveto
          177 callsubr
          327 hmoveto
          -76 callsubr
          -898 -836 -104 callsubr
          -101 callsubr
        </CharString>
        <CharString name="Odotaccent">
          1681 836 -56 callsubr
          -745 -846 -104 callsubr
          -101 callsubr
        </CharString>
        <CharString name="Odotaccentmacron">
          1681 545 1803 1 callsubr
          291 -360 rmoveto
          58 46 39 52 52 -46 40 -58 -59 -46 -40 -52 -52 46 -39 59 hvcurveto
          -745 -828 -104 callsubr
          -101 callsubr
        </CharString>
        <CharString name="Odotbelow">
          -1 callsubr
          13 callsubr
          457 -347 288 -403 83 callsubr
          67 callsubr
          288 -32 callgsubr
          53 callsubr
          421 -909 rmoveto
          -43 callsubr
          -102 callgsubr
        </CharString>
        <CharString name="Ograve">
          1681 904 14 callsubr
          -465 -1099 -104 callsubr
          -101 callsubr
        </CharString>
        <CharString name="Ohookabove">
          1681 865 58 callgsubr
          50 hhcurveto
          63 39 -28 -44 -48 -40 -42 -81 -51 hvcurveto
          62 hlineto
          162 59 59 58 73 vvcurveto
          77 -71 54 -106 vhcurveto
          -774 -1152 -104 callsubr
          -101 callsubr
        </CharString>
        <CharString name="Ohorn">
          1699 91 721 -104 callsubr
          43 callsubr
        </CharString>
        <CharString name="Ohornacute">
          1699 793 -92 callsubr
          -628 -821 -104 callsubr
          43 callsubr
        </CharString>
        <CharString name="Ohorndotbelow">
          1699 91 721 -104 callsubr
          314 -168 238 -237 115 vhcurveto
          -7 34 37 -4 38 hhcurveto
          172 118 61 124 hvcurveto
          1 97 -73 90 -103 45 rrcurveto
          -59 hlineto
          21 -26 17 -57 -1 -53 rrcurveto
          -125 -81 -91 -157 vhcurveto
          -92 -96 24 -121 179 callsubr
          -32 callgsubr
          53 callsubr
          418 -909 -83 callsubr
        </CharString>
        <CharString name="Ohorngrave">
          1699 906 117 callsubr
          -467 -1099 -104 callsubr
          43 callsubr
        </CharString>
        <CharString name="Ohornhookabove">
          1699 867 1873 rmoveto
          -100 -72 166 callsubr
          -776 -1152 -104 callsubr
          43 callsubr
        </CharString>
        <CharString name="Ohorntilde">
          1699 955 175 callsubr
          -24 12 24 -34 hvcurveto
          -30 20 rlineto
          35 -52 -43 22 -57 hhcurveto
          -99 -77 -53 callgsubr
          29 23 -54 callgsubr
          -864 -836 -104 callsubr
          43 callsubr
        </CharString>
        <CharString name="Ohungarumlaut">
          1681 695 1827 rmoveto
          -50 -285 75 0 208 279 rlineto
          7 vlineto
          122 -1 rmoveto
          -131 -285 81 0 304 279 rlineto
          7 vlineto
          -1213 -1107 -104 callsubr
          -101 callsubr
        </CharString>
        <CharString name="Oinvertedbreve">
          1681 835 57 callsubr
          108 callsubr
          63 vlineto
          3 -55 callgsubr
          -744 -1166 -104 callsubr
          -101 callsubr
        </CharString>
        <CharString name="Omacron">
          1681 563 -53 callsubr
          -472 -1012 -104 callsubr
          -101 callsubr
        </CharString>
        <CharString name="Omacronacute">
          1681 1125 132 callsubr
          -51 vlineto
          -1 -184 1 callsubr
          -454 -973 -104 callsubr
          -101 callsubr
        </CharString>
        <CharString name="Omacrongrave">
          1681 546 82 callsubr
          -1 -401 1 callsubr
          -454 -973 -104 callsubr
          -101 callsubr
        </CharString>
        <CharString name="Omegagreek">
          1593 84 40 callgsubr
          149 204 263 -7 callgsubr
          -47 hlineto
          -70 -168 -159 -45 -315 -2 rrcurveto
          103 vlineto
          338 63 callgsubr
          -445 -282 26 callgsubr
          -162 43 -74 170 rrcurveto
          -48 hlineto
          endchar
        </CharString>
        <CharString name="Omegatonosgreek">
          1742 233 40 callgsubr
          148 204 264 -7 callgsubr
          -48 hlineto
          -69 -168 -159 -45 -316 -2 rrcurveto
          103 vlineto
          339 63 callgsubr
          -446 -281 26 callgsubr
          -163 43 -73 170 rrcurveto
          -48 hlineto
          -104 684 -61 callgsubr
          endchar
        </CharString>
        <CharString name="Omicrongreek">
          -1 callsubr
          13 callsubr
          -101 callsubr
        </CharString>
        <CharString name="Omicrontonosgreek">
          1771 182 721 -104 callsubr
          457 -347 288 -404 -452 -296 -330 -418 vhcurveto
          -104 351 -61 callgsubr
          513 -335 rmoveto
          374 118 275 288 262 162 -290 -388 -374 60 callgsubr
        </CharString>
        <CharString name="Oogonek">
          -1 callsubr
          189 callsubr
        </CharString>
        <CharString name="Oogonekmacron">
          1681 563 -53 callsubr
          -472 -1012 rmoveto
          189 callsubr
        </CharString>
        <CharString name="Oslash">
          -1 callsubr
          183 callsubr
        </CharString>
        <CharString name="Oslashacute">
          228 callsubr
          183 callsubr
        </CharString>
        <CharString name="Otilde">
          1681 953 1557 rmoveto
          100 76 73 195 -6 -72 callgsubr
          29 callgsubr
          -62 callgsubr
          -862 -836 -104 callsubr
          -101 callsubr
        </CharString>
        <CharString name="Otildeacute">
          1681 1125 132 callsubr
          -52 vlineto
          411 -210 rmoveto
          102 68 58 126 callsubr
          7 12 -40 hvcurveto
          -33 11 rlineto
          13 -46 114 callsubr
          47 hhcurveto
          28 28 -7 -12 139 callsubr
          -866 -840 -104 callsubr
          -101 callsubr
        </CharString>
        <CharString name="Otildedieresis">
          1681 681 1796 rmoveto
          -39 callgsubr
          -55 -42 -35 -49 -49 42 -35 55 hvcurveto
          327 hmoveto
          50 callsubr
          -32 -235 rmoveto
          102 68 58 126 callsubr
          7 12 -40 hvcurveto
          -33 11 rlineto
          13 -46 114 callsubr
          47 hhcurveto
          28 28 -7 -12 139 callsubr
          -866 -840 -104 callsubr
          -101 callsubr
        </CharString>
        <CharString name="Otildemacron">
          1681 545 1827 1 callsubr
          412 -372 rmoveto
          102 68 58 126 callsubr
          7 12 -40 hvcurveto
          -33 11 rlineto
          13 -46 114 callsubr
          47 hhcurveto
          28 28 -7 -12 139 callsubr
          -866 -840 -104 callsubr
          -101 callsubr
        </CharString>
        <CharString name="P">
          1364 1283 1022 42 callsubr
        </CharString>
        <CharString name="Pacute">
          1364 609 -92 callsubr
          748 -520 42 callsubr
        </CharString>
        <CharString name="Pdotaccent">
          1364 653 -56 callsubr
          630 -545 42 callsubr
        </CharString>
        <CharString name="Pecyrillic">
          1637 1433 -64 callsubr
          -1523 37 callsubr
          -107 callsubr
          -52 callsubr
          1187 626 -1187 vlineto
          -86 -20 -20 -118 -18 vhcurveto
          -59 587 -100 callgsubr
        </CharString>
        <CharString name="Phigreek">
          1878 78 720 rmoveto
          -322 281 -180 438 -13 vhcurveto
          -2 26 callsubr
          601 -97 callgsubr
          2 vlineto
          419 13 300 173 332 vvcurveto
          322 -288 180 -431 13 vhcurveto
          3 vlineto
          98 21 28 138 18 vhcurveto
          59 -601 -59 vlineto
          137 -18 21 -28 -98 vvcurveto
          -3 vlineto
          -411 -13 -308 -171 -334 vvcurveto
          1416 hmoveto
          -258 -162 -164 -251 -19 vhcurveto
          886 vlineto
          268 -18 145 -167 -260 vvcurveto
          -1110 6 rmoveto
          255 159 165 254 19 vhcurveto
          -886 vlineto
          -264 18 -149 165 264 vvcurveto
          endchar
        </CharString>
        <CharString name="Pigreek">
          1608 1404 -64 callsubr
          -1494 37 callsubr
          -107 callsubr
          -52 callsubr
          1187 598 -1187 vlineto
          -86 -20 -20 -119 -18 vhcurveto
          -59 587 -100 callgsubr
        </CharString>
        <CharString name="Psigreek">
          1830 1057 203 rmoveto
          310 vlineto
          329 12 181 122 48 335 rrcurveto
          32 230 18 125 34 32 91 4 rlinecurve
          59 vlineto
          5 -31 -59 7 -56 hhcurveto
          -158 -83 -62 -195 -29 hvcurveto
          -35 -239 -36 -238 -72 -105 -174 -17 rlinecurve
          673 vlineto
          86 20 20 118 17 vhcurveto
          60 -560 -60 vlineto
          118 -17 20 -20 -86 vvcurveto
          -673 vlineto
          -174 17 -72 104 -36 239 -35 239 rcurveline
          195 -29 -84 62 -158 hhcurveto
          -55 -60 -7 -5 -31 hvcurveto
          -59 vlineto
          92 -4 34 -32 17 -125 rrcurveto
          33 -230 48 -335 181 -123 329 -11 rlinecurve
          -310 26 callsubr
          600 59 vlineto
          -137 18 -21 28 98 vvcurveto
          endchar
        </CharString>
        <CharString name="Q">
          -1 callsubr
          -423 297 -279 364 -39 vhcurveto
          141 -130 rlineto
          -180 192 97 -39 131 hhcurveto
          106 101 32 47 82 hvcurveto
          55 vlineto
          -119 -15 -108 42 -190 152 -87 71 rcurveline
          304 99 188 278 332 vvcurveto
          457 -346 288 -403 -454 -296 -330 -418 67 callsubr
          287 264 162 -290 -388 -1 vhcurveto
          -374 -118 -276 -287 -263 -162 291 388 vhcurveto
          endchar
        </CharString>
        <CharString name="R">
          1395 1264 1054 146 callsubr
          endchar
        </CharString>
        <CharString name="Racute">
          1395 621 -92 callsubr
          717 -488 146 callsubr
          endchar
        </CharString>
        <CharString name="Rcaron">
          1395 896 -65 callsubr
          -47 callsubr
          -4 callsubr
          296 -786 146 callsubr
          endchar
        </CharString>
        <CharString name="Rcommaaccent">
          -58 callgsubr
          -236 -1502 130 callsubr
          61 -1 45 -26 -47 vvcurveto
          -48 -44 -27 -65 -55 -51 17 23 -31 vhcurveto
          -1 -55 rlineto
          -44 37 76 -33 91 hhcurveto
          endchar
        </CharString>
        <CharString name="Rdblgrave">
          1395 481 56 callsubr
          81 87 callsubr
          377 -487 146 callsubr
          endchar
        </CharString>
        <CharString name="Rdotaccent">
          1395 665 -56 callsubr
          599 -513 146 callsubr
          endchar
        </CharString>
        <CharString name="Rdotbelow">
          -58 callgsubr
          -225 -1208 rmoveto
          -43 callsubr
          -102 callgsubr
        </CharString>
        <CharString name="Rdotbelowmacron">
          1395 392 -53 callsubr
          872 -679 146 callsubr
          -225 -1208 rmoveto
          -43 callsubr
          -102 callgsubr
        </CharString>
        <CharString name="Rhogreek">
          1364 1283 1022 42 callsubr
        </CharString>
        <CharString name="Rinvertedbreve">
          1395 664 57 callsubr
          108 callsubr
          64 vlineto
          2 -55 callgsubr
          600 -833 146 callsubr
          endchar
        </CharString>
        <CharString name="Rlinebelow">
          -58 callgsubr
          -507 -1394 -73 callsubr
        </CharString>
        <CharString name="S">
          1223 585 -25 88 callsubr
          endchar
        </CharString>
        <CharString name="Sacute">
          1223 595 -92 callsubr
          64 -1567 88 callsubr
          endchar
        </CharString>
        <CharString name="Sacutedotaccent">
          1223 639 1761 rmoveto
          59 46 40 51 53 -46 38 -59 -58 -47 2 callgsubr
          236 -1565 88 callsubr
          endchar
        </CharString>
        <CharString name="Scaron">
          1223 871 123 callsubr
          -50 callgsubr
          -358 -1865 88 callsubr
          endchar
        </CharString>
        <CharString name="Scarondotaccent">
          1223 639 1782 rmoveto
          59 46 39 52 51 -46 40 -59 -58 -47 -1 callgsubr
          274 168 rlineto
          -352 -1740 88 callsubr
          endchar
        </CharString>
        <CharString name="Scedilla">
          1223 570 -466 rmoveto
          -75 callgsubr
          64 80 rlineto
          283 17 220 163 260 vvcurveto
          210 -123 144 -260 87 vhcurveto
          -120 41 rlineto
          -170 58 -91 74 130 vvcurveto
          132 95 94 179 181 131 -123 -222 48 vhcurveto
          56 hlineto
          -10 331 rlineto
          53 -73 -147 44 -187 hhcurveto
          -324 -221 -159 -258 -205 135 -142 246 -82 hvcurveto
          121 -40 rlineto
          181 -62 81 -85 -133 vvcurveto
          -146 -111 -99 -170 -201 -173 131 251 -55 vhcurveto
          -55 hlineto
          12 -356 91 -58 162 -46 192 -4 rlinecurve
          -114 -142 -27 callsubr
          66 callsubr
        </CharString>
        <CharString name="Schwa">
          1507 694 -25 rmoveto
          447 275 302 446 490 -325 257 -432 -227 -174 -43 -58 -87 hvcurveto
          -11 -358 rlineto
          56 hlineto
          231 53 144 144 225 hhcurveto
          287 163 -247 -418 hvcurveto
          -11 0 -10 -10 vvcurveto
          -1017 hlineto
          -4 -29 -4 -36 -34 vvcurveto
          -364 219 -252 412 vhcurveto
          -333 583 rmoveto
          19 0 20 1 19 vhcurveto
          723 2 -19 -332 -120 -227 -247 -1 rlinecurve
          -254 -84 233 267 hvcurveto
          endchar
        </CharString>
        <CharString name="Scircumflex">
          1223 433 -44 callsubr
          -46 callsubr
          -90 callgsubr
          224 -1567 88 callsubr
          endchar
        </CharString>
        <CharString name="Scommaaccent">
          1223 585 -25 88 callsubr
          2 -441 -5 callsubr
          24 callsubr
          31 7 33 hhcurveto
          36 callsubr
          -45 -27 -64 -55 16 callsubr
        </CharString>
        <CharString name="Sdotaccent">
          1223 639 -19 callsubr
          -54 -1592 88 callsubr
          endchar
        </CharString>
        <CharString name="Sdotbelow">
          1223 585 -25 88 callsubr
          14 -147 -83 callsubr
        </CharString>
        <CharString name="Sdotbelowdotaccent">
          1223 639 -19 callsubr
          -54 -1592 88 callsubr
          14 -147 -83 callsubr
        </CharString>
        <CharString name="Shacyrillic">
          2351 2146 -64 callsubr
          -587 22 callgsubr
          20 118 17 vhcurveto
          60 -578 -60 vlineto
          118 -17 21 -20 -85 vvcurveto
          -1188 -520 1188 vlineto
          85 21 20 118 17 81 callsubr
          -107 callsubr
          2236 -100 callgsubr
        </CharString>
        <CharString name="Shchacyrillic">
          2382 2333 74 rmoveto
          -187 1181 hlineto
          -103 callgsubr
          22 callgsubr
          19 118 18 vhcurveto
          60 -578 -60 vlineto
          118 -18 21 -19 -85 vvcurveto
          -1188 -520 1188 vlineto
          85 21 20 118 17 81 callsubr
          -107 callsubr
          1894 vlineto
          203 45 -42 -284 80 hvcurveto
          63 hlineto
          endchar
        </CharString>
        <CharString name="Sigmagreek">
          82 callgsubr
          497 -702 -490 -535 rlineto
          -151 1127 vlineto
          15 475 rlineto
          -62 hlineto
          -225 -54 -73 -39 -289 hhcurveto
          -508 hlineto
          574 578 0 22 -392 565 289 -9 289 -11 71 -65 55 -221 rlinecurve
          56 hlineto
          endchar
        </CharString>
        <CharString name="Softsigncyrillic">
          1358 217 callsubr
          -319 -7 -12 callgsubr
        </CharString>
        <CharString name="T">
          1352 -48 callsubr
          -59 callsubr
          -51 callsubr
          -71 callsubr
          29 callsubr
          endchar
        </CharString>
        <CharString name="Taugreek">
          1352 -48 callsubr
          -59 callsubr
          -51 callsubr
          -71 callsubr
          29 callsubr
          endchar
        </CharString>
        <CharString name="Tbar">
          1352 246 704 rmoveto
          279 -501 hlineto
          -98 -21 -28 -137 -18 vhcurveto
          -59 -71 callsubr
          501 279 72 -279 599 108 callgsubr
          -13 376 -1240 0 -13 -59 callsubr
          -599 -279 vlineto
          endchar
        </CharString>
        <CharString name="Tcaron">
          1352 907 -65 callsubr
          -43 callgsubr
          316 -396 rmoveto
          -1240 hlineto
          -13 -59 callsubr
          -51 callsubr
          -71 callsubr
          29 callsubr
          endchar
        </CharString>
        <CharString name="Tcedilla">
          1352 647 69 callgsubr
          -8 hvcurveto
          79 104 rlineto
          263 59 hlineto
          -138 18 -21 28 98 vvcurveto
          29 callsubr
          -13 376 -1240 0 -13 -59 callsubr
          -51 callsubr
          281 vlineto
          -129 -166 rlineto
          -50 vlineto
          4 10 19 141 callsubr
          -49 -52 15 21 -28 hvcurveto
          -1 -58 rlineto
          -47 38 77 -32 93 hhcurveto
          endchar
        </CharString>
        <CharString name="Tcircumflexbelow">
          1352 -48 callsubr
          -59 callsubr
          -51 callsubr
          -71 callsubr
          29 callsubr
          -853 -1524 -66 callsubr
          71 -86 callgsubr
        </CharString>
        <CharString name="Tcommaaccent">
          1352 -48 callsubr
          -59 callsubr
          -51 callsubr
          -71 callsubr
          29 callsubr
          -645 -1534 -5 callsubr
          24 callsubr
          107 callsubr
          36 77 -33 90 hhcurveto
          endchar
        </CharString>
        <CharString name="Tdotaccent">
          1352 676 1567 rmoveto
          69 54 51 67 67 -54 50 -69 35 callsubr
          hvcurveto
          620 -123 rmoveto
          -1240 hlineto
          -13 -59 callsubr
          -51 callsubr
          -71 callsubr
          29 callsubr
          endchar
        </CharString>
        <CharString name="Tdotbelow">
          1352 -48 callsubr
          -59 callsubr
          -51 callsubr
          -71 callsubr
          29 callsubr
          -633 -1240 -83 callsubr
        </CharString>
        <CharString name="Tecyrillic">
          1352 -48 callsubr
          -59 callsubr
          -51 callsubr
          -71 callsubr
          29 callsubr
          endchar
        </CharString>
        <CharString name="Thetagreek">
          1688 844 -25 rmoveto
          455 298 331 418 457 -349 288 -404 -456 -297 -330 -419 -456 349 -289 404 hvcurveto
          9 77 rmoveto
          -278 -168 287 397 386 125 270 303 278 168 -285 -399 -385 -125 -271 -303 hvcurveto
          -291 430 rmoveto
          48 hlineto
          141 23 41 56 130 hhcurveto
          79 hlineto
          130 42 -56 -141 22 hvcurveto
          48 471 -48 hlineto
          -138 -22 -42 -55 -130 hhcurveto
          -79 hlineto
          -130 -41 55 138 -23 hvcurveto
          -48 hlineto
          endchar
        </CharString>
        <CharString name="Thorn">
          1345 1282 747 rmoveto
          266 -240 124 -383 vhcurveto
          -154 104 44 callgsubr
          -88 vvcurveto
          -1068 vlineto
          -88 -77 callsubr
          137 callsubr
          130 154 vlineto
          363 260 142 272 hvcurveto
          -320 -18 rmoveto
          -202 -134 -114 -240 -9 vhcurveto
          -83 -3 0 668 83 -3 rlineto
          246 -8 128 -131 -198 vvcurveto
          endchar
        </CharString>
        <CharString name="Tlinebelow">
          1352 -48 callsubr
          -59 callsubr
          -51 callsubr
          -71 callsubr
          29 callsubr
          -915 -1426 -73 callsubr
        </CharString>
        <CharString name="Tsecyrillic">
          1668 1620 74 rmoveto
          -187 1181 hlineto
          -103 callgsubr
          -60 vlineto
          118 -17 20 -21 -85 vvcurveto
          -1187 -626 1187 vlineto
          85 21 21 118 17 81 callsubr
          -107 callsubr
          1180 vlineto
          204 44 -42 -284 80 hvcurveto
          63 hlineto
          endchar
        </CharString>
        <CharString name="Tshecyrillic">
          1815 -48 callsubr
          -20 callgsubr
          475 vlineto
          39 64 86 19 102 hhcurveto
          191 98 -111 -224 hvcurveto
          -392 440 59 vlineto
          -118 18 -21 20 86 vvcurveto
          208 vlineto
          313 -204 127 -282 -1 vhcurveto
          -153 -125 -35 -50 -78 hvcurveto
          629 78 callgsubr
        </CharString>
        <CharString name="U">
          1521 173 1260 -85 callsubr
        </CharString>
        <CharString name="Uacute">
          1521 787 -92 callsubr
          -540 -282 -85 callsubr
        </CharString>
        <CharString name="Ubreve">
          1521 831 1579 rmoveto
          180 27 callgsubr
          -124 -85 65 91 vhcurveto
          4 -63 vlineto
          -3 -15 -1 -17 -18 vvcurveto
          -130 97 -128 179 vhcurveto
          -658 -319 -85 callsubr
        </CharString>
        <CharString name="Ubrevecyrillic">
          1436 806 80 callgsubr
          -65 -65 -46 -49 -60 -59 46 -47 56 hvcurveto
          1 hlineto
          -40 -44 -67 -26 -81 hhcurveto
          -81 76 callgsubr
          -66 -47 -48 -71 -126 122 -106 190 hvcurveto
          -571 -1451 188 callsubr
        </CharString>
        <CharString name="Ucaron">
          1521 1063 123 callsubr
          209 -286 -4 callsubr
          -962 -580 -85 callsubr
        </CharString>
        <CharString name="Ucircumflex">
          1521 625 -44 callsubr
          -46 callsubr
          -90 callgsubr
          -380 -282 -85 callsubr
        </CharString>
        <CharString name="Ucircumflexbelow">
          109 callsubr
          413 -1716 -66 callsubr
          71 -86 callgsubr
        </CharString>
        <CharString name="Ucyrillic">
          1436 235 127 188 callsubr
        </CharString>
        <CharString name="Udblgrave">
          1521 648 1827 rmoveto
          -254 -7 hlineto
          304 -279 rlineto
          80 hlineto
          225 286 rmoveto
          -232 -7 hlineto
          206 -279 rlineto
          76 hlineto
          -880 -281 -85 callsubr
        </CharString>
        <CharString name="Udieresis">
          1521 663 1571 rmoveto
          19 callsubr
          337 hmoveto
          19 callsubr
          -827 -311 -85 callsubr
        </CharString>
        <CharString name="Udieresisacute">
          1521 1121 -69 callgsubr
          136 -214 rmoveto
          -76 callsubr
          328 hmoveto
          -76 callsubr
          -812 -297 -85 callsubr
        </CharString>
        <CharString name="Udieresisbelow">
          109 callsubr
          424 -1666 225 callsubr
        </CharString>
        <CharString name="Udieresiscaron">
          1521 1121 33 callgsubr
          267 161 rlineto
          -444 -378 rmoveto
          -76 callsubr
          328 hmoveto
          -76 callsubr
          -812 -297 -85 callsubr
        </CharString>
        <CharString name="Udieresisgrave">
          1521 542 1852 rmoveto
          579 -81 0 52 -579 166 rlineto
          135 -432 rmoveto
          -76 callsubr
          328 hmoveto
          -76 callsubr
          -812 -297 -85 callsubr
        </CharString>
        <CharString name="Udieresismacron">
          1521 541 18 callgsubr
          328 hmoveto
          -76 callsubr
          -812 -297 -85 callsubr
        </CharString>
        <CharString name="Udotbelow">
          109 callsubr
          633 -1432 -83 callsubr
        </CharString>
        <CharString name="Ugrave">
          1521 900 117 callsubr
          -379 -560 -85 callsubr
        </CharString>
        <CharString name="Uhookabove">
          1521 861 1873 rmoveto
          -99 -73 166 callsubr
          -688 -613 -85 callsubr
        </CharString>
        <CharString name="Uhorn">
          1652 179 543 40 callsubr
        </CharString>
        <CharString name="Uhornacute">
          1652 807 -92 callsubr
          -554 -999 40 callsubr
        </CharString>
        <CharString name="Uhorndotbelow">
          1652 179 543 rmoveto
          -394 277 -174 317 360 214 222 345 3 vhcurveto
          6 859 rlineto
          -2 20 20 -2 19 hhcurveto
          149 87 64 108 94 -68 89 -100 45 hvcurveto
          -59 hlineto
          21 -26 16 -55 -55 vvcurveto
          -120 -85 -97 -186 vhcurveto
          -98 -59 hlineto
          146 -22 18 -22 -119 vvcurveto
          6 -670 rlineto
          -284 1 -150 -163 -239 hhcurveto
          -230 -164 142 306 hvcurveto
          697 vlineto
          92 21 21 142 22 vhcurveto
          59 -613 -59 vlineto
          127 -21 22 -22 -92 vvcurveto
          636 -1422 rmoveto
          -43 callsubr
          68 55 51 67 67 -54 50 -69 hvcurveto
          endchar
        </CharString>
        <CharString name="Uhorngrave">
          1652 920 117 callsubr
          -393 -1277 40 callsubr
        </CharString>
        <CharString name="Uhornhookabove">
          1652 881 58 callgsubr
          49 hhcurveto
          64 39 -28 -44 -48 -40 -42 -81 -51 hvcurveto
          62 hlineto
          161 59 60 58 73 vvcurveto
          77 -72 54 -105 vhcurveto
          -702 -1330 40 callsubr
        </CharString>
        <CharString name="Uhorntilde">
          1652 969 175 callsubr
          216 callsubr
          -790 -1014 40 callsubr
        </CharString>
        <CharString name="Uhungarumlaut">
          1521 690 1827 -11 callgsubr
          -1126 -568 -85 callsubr
        </CharString>
        <CharString name="Uinvertedbreve">
          1521 831 57 callsubr
          1 -18 3 -15 hvcurveto
          63 5 hlineto
          91 85 64 124 124 85 -65 -90 vhcurveto
          -5 63 vlineto
          3 -55 callgsubr
          -658 -627 -85 callsubr
        </CharString>
        <CharString name="Umacron">
          1521 558 1601 rmoveto
          547 132 -547 hlineto
          -385 -473 -85 callsubr
        </CharString>
        <CharString name="Umacrondieresis">
          1521 677 1796 rmoveto
          50 callsubr
          328 hmoveto
          50 callsubr
          -422 -208 rmoveto
          537 106 -537 hlineto
          -390 -434 -85 callsubr
        </CharString>
        <CharString name="Uogonek">
          1521 822 -482 rmoveto
          93 79 44 64 31 hvcurveto
          -1 58 rlineto
          -17 -16 -28 -13 -34 hhcurveto
          -73 -60 78 105 55 14 52 22 35 hvcurveto
          314 32 176 218 5 320 rrcurveto
          8 643 2 142 18 33 123 17 rlinecurve
          60 -403 -59 vlineto
          135 -19 19 -32 2 220 callsubr
          -44 callgsubr
          vhcurveto
          6 hlineto
          -94 -72 -63 -95 -98 vvcurveto
          -116 89 -76 118 vhcurveto
          endchar
        </CharString>
        <CharString name="Upsilondieresisgreek">
          1374 599 1571 rmoveto
          19 callsubr
          337 hmoveto
          19 callsubr
          -718 -384 -62 callsubr
        </CharString>
        <CharString name="Upsilongreek">
          1374 218 1187 -62 callsubr
        </CharString>
        <CharString name="Upsilontonosgreek">
          1728 572 1187 rmoveto
          320 -543 rlineto
          -441 vlineto
          -98 -21 -28 -138 -18 vhcurveto
          -59 -71 callsubr
          457 vlineto
          299 501 104 174 36 32 103 18 rlinecurve
          59 -408 -59 vlineto
          140 -19 10 -40 -87 -162 rrcurveto
          -234 -432 -257 452 -81 143 15 40 132 18 rlinecurve
          59 -617 -59 vlineto
          99 -17 34 -29 91 -152 rrcurveto
          -494 -115 -61 callgsubr
          endchar
        </CharString>
        <CharString name="Uring">
          1521 577 1733 rmoveto
          -108 113 -70 141 142 112 69 109 108 -111 72 -143 -142 -112 -72 -108 vhcurveto
          165 hmoveto
          71 37 50 52 52 37 -50 -71 -72 -37 -48 -52 -52 -37 48 72 vhcurveto
          -569 -473 -85 callsubr
        </CharString>
        <CharString name="Utilde">
          1521 949 175 callsubr
          216 callsubr
          -776 -297 -85 callsubr
        </CharString>
        <CharString name="Utildeacute">
          1521 1121 -69 callgsubr
          412 -210 rmoveto
          102 67 58 114 -1 hvcurveto
          -67 hlineto
          -46 -1 -28 -19 -46 hhcurveto
          -28 -29 7 12 -40 hvcurveto
          -34 11 rlineto
          13 -45 114 callsubr
          46 hhcurveto
          28 29 -7 -12 140 callsubr
          -780 -301 -85 callsubr
        </CharString>
        <CharString name="Utildebelow">
          109 callsubr
          748 -1676 5 callgsubr
          -29 21 rlineto
          34 -51 -42 22 -56 104 callgsubr
          39 callgsubr
        </CharString>
        <CharString name="V">
          81 callgsubr
          endchar
        </CharString>
        <CharString name="Vdotbelow">
          81 callgsubr
          531 -1350 rmoveto
          35 callsubr
          22 callsubr
        </CharString>
        <CharString name="Vecyrillic">
          1409 1328 418 95 callsubr
        </CharString>
        <CharString name="Vtilde">
          1428 908 1557 rmoveto
          100 76 73 195 -6 hvcurveto
          -68 hlineto
          -90 -3 -25 -30 -41 hhcurveto
          -29 -23 12 24 -35 hvcurveto
          29 callgsubr
          23 -13 -24 35 hvcurveto
          30 -20 rlineto
          -36 52 43 -21 56 hhcurveto
          -720 -379 rmoveto
          198 callsubr
          endchar
        </CharString>
        <CharString name="W">
          2202 184 1178 3 callsubr
        </CharString>
        <CharString name="Wacute">
          2202 1137 1542 rmoveto
          85 callgsubr
          -878 -364 3 callsubr
        </CharString>
        <CharString name="Wcircumflex">
          2202 974 -44 callsubr
          -46 callsubr
          30 callsubr
          -718 -364 3 callsubr
        </CharString>
        <CharString name="Wdieresis">
          2202 1012 154 callsubr
          -1165 -393 3 callsubr
        </CharString>
        <CharString name="Wdotaccent">
          2202 1181 -56 callsubr
          -997 -389 3 callsubr
        </CharString>
        <CharString name="Wdotbelow">
          2202 184 1178 rmoveto
          374 -1181 192 0 354 1139 343 -1139 195 0 366 1151 60 187 33 33 112 17 rlinecurve
          59 -419 -59 vlineto
          143 -21 14 -37 -49 -172 rrcurveto
          -249 -877 -257 902 -44 156 10 29 133 20 rlinecurve
          59 -589 -59 vlineto
          137 -21 15 -29 -45 -159 rrcurveto
          -252 -898 -261 899 -43 151 16 38 139 19 rlinecurve
          59 -621 -59 vlineto
          103 -16 39 -30 51 -161 rrcurveto
          919 -1350 rmoveto
          35 callsubr
          22 callsubr
        </CharString>
        <CharString name="Wgrave">
          2202 1249 14 callsubr
          -717 -642 3 callsubr
        </CharString>
        <CharString name="X">
          1406 283 297 39 callsubr
        </CharString>
        <CharString name="Xdieresis">
          1406 615 154 callsubr
          -669 -1274 39 callsubr
        </CharString>
        <CharString name="Xdotaccent">
          1406 783 -19 callsubr
          -500 -1270 39 callsubr
        </CharString>
        <CharString name="Xigreek">
          1355 1263 1444 rmoveto
          -1170 hlineto
          -17 -414 rlineto
          55 hlineto
          178 49 76 34 252 hhcurveto
          339 hlineto
          252 76 -34 -178 48 hvcurveto
          57 hlineto
          -675 -338 rmoveto
          145 hlineto
          172 46 -46 -147 27 hvcurveto
          52 457 -52 hlineto
          -145 -28 -45 -44 -172 hhcurveto
          -145 68 callgsubr
          27 45 46 172 hhcurveto
          672 -692 rmoveto
          97 callgsubr
          -306 hlineto
          -284 -74 33 220 -51 hvcurveto
          -55 hlineto
          17 -460 rlineto
          endchar
        </CharString>
        <CharString name="Xigreek.1">
          1357 606 692 rmoveto
          41 -485 -122 hlineto
          -283 -74 34 219 -51 hvcurveto
          -55 hlineto
          17 -460 1199 0 97 callgsubr
          -122 485 41 hlineto
          172 45 -46 -147 27 hvcurveto
          53 457 -53 hlineto
          -145 -27 -45 -44 -172 hhcurveto
          -41 475 138 hlineto
          252 76 -34 -178 48 hvcurveto
          56 hlineto
          -17 414 -1169 0 -18 -414 rlineto
          56 hlineto
          178 49 76 34 252 hhcurveto
          138 -475 -41 68 callgsubr
          26 46 46 172 hhcurveto
          endchar
        </CharString>
        <CharString name="Y">
          1374 218 1187 -62 callsubr
        </CharString>
        <CharString name="Yacute">
          1374 723 -92 callsubr
          -431 -355 -62 callsubr
        </CharString>
        <CharString name="Ycircumflex">
          1374 561 -44 callsubr
          -46 callsubr
          -90 callgsubr
          -271 -355 -62 callsubr
        </CharString>
        <CharString name="Ydieresis">
          1374 599 1571 rmoveto
          19 callsubr
          337 hmoveto
          19 callsubr
          -718 -384 -62 callsubr
        </CharString>
        <CharString name="Ydotaccent">
          1374 767 1567 rmoveto
          69 54 51 67 67 -54 50 -69 -43 callsubr
          hvcurveto
          -549 -380 -62 callsubr
        </CharString>
        <CharString name="Ydotbelow">
          1374 218 1187 rmoveto
          320 -543 rlineto
          -441 vlineto
          -98 -22 -28 -137 -18 vhcurveto
          -59 -71 callsubr
          457 vlineto
          298 501 105 174 36 32 103 18 rlinecurve
          59 218 callsubr
          479 -1359 -83 callsubr
        </CharString>
        <CharString name="Yericyrillic">
          1984 217 callsubr
          497 -253 -82 callsubr
          -93 callsubr
          -107 callsubr
          -9 callsubr
          -816 246 -12 callgsubr
        </CharString>
        <CharString name="Ygrave">
          1374 836 117 callsubr
          -270 -633 -62 callsubr
        </CharString>
        <CharString name="Yhookabove">
          1374 797 1873 rmoveto
          -100 -72 166 callsubr
          -579 -686 -62 callsubr
        </CharString>
        <CharString name="Yicyrillic">
          710 187 11 callsubr
          -19 -1382 -82 callsubr
          -93 callsubr
          -107 callsubr
          -81 callsubr
        </CharString>
        <CharString name="Ymacron">
          1374 494 -53 callsubr
          -276 -546 -62 callsubr
        </CharString>
        <CharString name="Ytilde">
          1374 885 -67 callgsubr
          -34 hvcurveto
          -30 20 27 callsubr
          -53 callgsubr
          29 23 -54 callgsubr
          -667 -370 -62 callsubr
        </CharString>
        <CharString name="Z">
          1287 1197 hmoveto
          5 callsubr
        </CharString>
        <CharString name="Zacute">
          1287 614 1542 rmoveto
          85 callgsubr
          658 -1542 rmoveto
          5 callsubr
        </CharString>
        <CharString name="Zcaron">
          1287 889 -65 callsubr
          -47 callsubr
          -4 callsubr
          236 -1840 rmoveto
          5 callsubr
        </CharString>
        <CharString name="Zcircumflex">
          1287 451 -44 callsubr
          -46 callsubr
          30 callsubr
          818 -1542 rmoveto
          5 callsubr
        </CharString>
        <CharString name="Zdotaccent">
          1287 657 -19 callsubr
          540 -1567 rmoveto
          5 callsubr
        </CharString>
        <CharString name="Zdotbelow">
          214 callsubr
          575 -178 rmoveto
          35 callsubr
          22 callsubr
        </CharString>
        <CharString name="Zecyrillic">
          1267 1186 417 rmoveto
          234 -206 109 -255 18 vhcurveto
          226 31 184 114 194 vvcurveto
          227 -200 125 -359 -191 -157 -50 -57 -83 vhcurveto
          -11 -323 rlineto
          56 hlineto
          220 51 120 127 193 hhcurveto
          187 82 -120 -176 -190 -111 -108 -201 hvcurveto
          -133 -72 133 hlineto
          231 127 -115 -205 -224 -131 -118 -207 -179 -137 113 241 -56 hvcurveto
          -55 hlineto
          12 -323 rlineto
          -61 90 166 -53 181 hhcurveto
          348 285 145 297 hvcurveto
          endchar
        </CharString>
        <CharString name="Zetagreek">
          1287 1197 hmoveto
          5 callsubr
        </CharString>
        <CharString name="Zhecyrillic">
          2078 367 hmoveto
          416 706 108 1 rlineto
          -524 -93 callgsubr
          561 59 vlineto
          -120 18 -19 20 86 vvcurveto
          524 vlineto
          108 -1 416 -706 rlineto
          385 56 hlineto
          -75 23 -44 44 -129 217 rrcurveto
          -343 585 224 243 140 148 66 46 119 23 rlinecurve
          59 -451 -59 vlineto
          141 -16 5 -45 -98 -119 rrcurveto
          -356 -425 -108 -1 rlineto
          482 vlineto
          86 19 20 120 18 vhcurveto
          59 -561 79 callsubr
          -482 vlineto
          -108 1 -355 425 -99 119 5 45 141 16 rlinecurve
          59 -451 -59 vlineto
          119 -23 63 -46 139 -147 rrcurveto
          234 -256 -336 -573 -129 -217 -45 -44 -75 -23 rlinecurve
          -56 vlineto
          endchar
        </CharString>
        <CharString name="Zlinebelow">
          214 callsubr
          293 -364 -94 callgsubr
        </CharString>
        <CharString name="a">
          1127 369 -20 -99 callsubr
        </CharString>
        <CharString name="a.dnum">
          702 227 -12 rmoveto
          92 72 37 54 96 callgsubr
          39 vlineto
          -1 -6 -8 -1 -10 hhcurveto
          -30 -24 18 43 hvcurveto
          234 31 callgsubr
          46 29 -15 24 209 callsubr
          -25 -16 -30 -15 -39 hhcurveto
          -46 -35 27 52 hvcurveto
          endchar
        </CharString>
        <CharString name="a.numr">
          691 227 675 rmoveto
          92 72 37 54 26 hvcurveto
          -57 12 60 -31 68 hhcurveto
          49 43 14 16 24 hvcurveto
          21 callgsubr
          46 28 -15 25 209 callsubr
          -26 -16 -30 -14 -39 hhcurveto
          -46 -35 27 52 hvcurveto
          endchar
        </CharString>
        <CharString name="a.sups">
          702 227 846 rmoveto
          92 72 37 53 96 callgsubr
          21 callgsubr
          45 29 -15 24 -22 14 vhcurveto
          5 19 22 4 23 hhcurveto
          83 48 -37 -91 hvcurveto
          -43 vlineto
          -115 -23 rlineto
          -172 -35 -63 -57 -79 vvcurveto
          -77 67 -54 99 vhcurveto
          18 161 rmoveto
          55 33 34 91 20 vhcurveto
          42 8 rlineto
          -156 vlineto
          -25 -16 -30 -15 -39 hhcurveto
          -46 -35 28 51 hvcurveto
          endchar
        </CharString>
        <CharString name="aacute">
          1127 470 -31 callsubr
          -26 -1139 -99 callsubr
        </CharString>
        <CharString name="abreve">
          1127 525 -13 callsubr
          133 callsubr
          -69 vlineto
          -3 -18 20 callsubr
          -156 -1166 -99 callsubr
        </CharString>
        <CharString name="abreveacute">
          1127 808 -26 callsubr
          282 -290 -36 callsubr
          -65 hlineto
          -152 -8 118 -97 172 hhcurveto
          -156 -1121 -99 callsubr
        </CharString>
        <CharString name="abrevecyrillic">
          1127 525 1139 rmoveto
          192 120 114 129 76 -49 48 -69 -66 -47 -50 -63 -62 47 -48 58 hvcurveto
          2 3 0 2 4 callgsubr
          -156 -1159 -99 callsubr
        </CharString>
        <CharString name="abrevedotbelow">
          1127 525 -13 callsubr
          133 callsubr
          -69 vlineto
          -3 -18 20 callsubr
          -156 -1166 38 callsubr
          220 -685 -84 callsubr
          23 callsubr
        </CharString>
        <CharString name="abrevegrave">
          1127 243 1485 -35 callgsubr
          282 -545 -36 callsubr
          -65 hlineto
          -152 -8 118 -97 172 hhcurveto
          -156 -1121 -99 callsubr
        </CharString>
        <CharString name="abrevehookabove">
          1127 517 1626 rmoveto
          -81 -62 -36 -42 -36 hvcurveto
          -49 vlineto
          15 23 120 callsubr
          -84 50 -99 vhcurveto
          8 -525 -36 callsubr
          -65 hlineto
          -152 -8 118 -97 172 hhcurveto
          -156 -1121 -99 callsubr
        </CharString>
        <CharString name="abrevetilde">
          1127 644 1416 -27 callgsubr
          -54 -33 callsubr
          16 callgsubr
          -119 -315 -36 callsubr
          -65 hlineto
          -152 -8 118 -97 172 hhcurveto
          -156 -1121 -99 callsubr
        </CharString>
        <CharString name="acaron">
          1127 761 -17 callsubr
          -467 -1528 -99 callsubr
        </CharString>
        <CharString name="acircumflex">
          1127 289 -58 callsubr
          76 0 -230 372 32 callsubr
          155 -1139 -99 callsubr
        </CharString>
        <CharString name="acircumflexacute">
          1127 808 -26 callsubr
          -294 vmoveto
          282 102 283 -102 0 62 -262 74 callsubr
          126 -1179 -99 callsubr
        </CharString>
        <CharString name="acircumflexdotbelow">
          1127 289 -58 callsubr
          76 0 -230 372 32 callsubr
          155 -1139 38 callsubr
          220 -685 -84 callsubr
          23 callsubr
        </CharString>
        <CharString name="acircumflexgrave">
          1127 243 1485 -35 callgsubr
          -549 vmoveto
          282 102 283 -102 0 62 -262 74 callsubr
          126 -1179 -99 callsubr
        </CharString>
        <CharString name="acircumflexhookabove">
          1127 742 1626 rmoveto
          -79 -63 -36 -42 -36 hvcurveto
          -49 vlineto
          15 23 45 14 45 hhcurveto
          65 37 -27 -41 -41 -34 -29 -71 -19 hvcurveto
          51 -38 rlineto
          130 28 71 45 86 vvcurveto
          84 -84 50 -100 vhcurveto
          -499 -529 rmoveto
          282 102 283 -102 0 62 -262 74 callsubr
          126 -1179 -99 callsubr
        </CharString>
        <CharString name="acircumflextilde">
          1127 644 1416 -27 callgsubr
          -54 -33 callsubr
          16 callgsubr
          -401 -319 rmoveto
          282 102 283 -102 0 62 -262 74 callsubr
          126 -1179 -99 callsubr
        </CharString>
        <CharString name="acute">
          1024 456 -80 callsubr
          84 callsubr
          endchar
        </CharString>
        <CharString name="acutecmb">
          0 -56 -80 callsubr
          84 callsubr
          endchar
        </CharString>
        <CharString name="acutecmb.short">
          0 -44 1092 -71 callgsubr
          endchar
        </CharString>
        <CharString name="acutedotaccentcmb">
          0 1374 vmoveto
          181 callsubr
          283 -172 rmoveto
          -88 callgsubr
          -61 vlineto
          endchar
        </CharString>
        <CharString name="acutedotaccentcmb.short">
          0 1761 vmoveto
          59 46 40 51 53 -46 38 -59 -59 -46 2 callgsubr
          endchar
        </CharString>
        <CharString name="acyrillic">
          1127 369 -20 -99 callsubr
        </CharString>
        <CharString name="adblgrave">
          1127 295 170 callsubr
          228 -363 rlineto
          77 hlineto
          -375 -1139 -99 callsubr
        </CharString>
        <CharString name="adieresis">
          1127 300 17 callsubr
          25 callsubr
          63 callsubr
          -45 callsubr
          -381 -1199 -99 callsubr
        </CharString>
        <CharString name="adieresismacron">
          1127 242 1442 -42 callsubr
          120 -445 2 callsubr
          -67 callsubr
          -7 callsubr
          -67 callsubr
          -319 -1141 -99 callsubr
        </CharString>
        <CharString name="adotaccent">
          1127 525 111 callsubr
          -156 -1190 -99 callsubr
        </CharString>
        <CharString name="adotbelow">
          1127 369 -20 38 callsubr
          220 -685 -84 callsubr
          23 callsubr
        </CharString>
        <CharString name="adotmacron">
          1127 242 7 callgsubr
          -156 -1139 -99 callsubr
        </CharString>
        <CharString name="ae">
          1658 373 -20 144 callsubr
        </CharString>
        <CharString name="aeacute">
          1658 785 -80 callsubr
          -72 callsubr
          -337 -1139 144 callsubr
        </CharString>
        <CharString name="aemacron">
          1658 538 -10 callsubr
          -165 -1391 144 callsubr
        </CharString>
        <CharString name="agrave">
          1127 582 55 callsubr
          155 -1502 -99 callsubr
        </CharString>
        <CharString name="ahookabove">
          1127 564 118 callsubr
          49 19 56 hhcurveto
          69 45 105 callsubr
          -195 -1521 -99 callsubr
        </CharString>
        <CharString name="ainvertedbreve">
          1127 525 180 callsubr
          69 5 hlineto
          102 94 169 callsubr
          -156 -1501 -99 callsubr
        </CharString>
        <CharString name="alphagreek">
          1302 466 -20 186 callsubr
        </CharString>
        <CharString name="alphatonosgreek">
          1302 632 1119 rmoveto
          224 363 rlineto
          9 -249 vlineto
          -50 -372 rlineto
          -91 -1139 186 callsubr
        </CharString>
        <CharString name="amacron">
          1127 222 -10 callsubr
          147 -1391 -99 callsubr
        </CharString>
        <CharString name="ampersand">
          1628 513 -23 rmoveto
          190 139 85 161 145 hvcurveto
          224 -223 rlineto
          408 56 hlineto
          -74 23 -68 50 -165 161 rrcurveto
          -152 152 137 181 133 174 49 37 105 14 rlinecurve
          59 vlineto
          -429 -1 rlineto
          -59 vlineto
          134 -19 25 -45 -97 -146 rrcurveto
          -100 -152 -324 322 -11 12 -11 11 -11 10 rlinecurve
          212 79 123 108 147 vvcurveto
          168 -146 128 -253 -258 -168 -153 -191 -119 50 -98 120 -136 vhcurveto
          -239 -81 -123 -142 -1 -182 rrcurveto
          -229 181 -162 255 vhcurveto
          8 1236 rmoveto
          111 72 64 103 112 66 -98 -126 vhcurveto
          -1 -117 -50 -95 -106 -68 rrcurveto
          -143 147 -53 82 100 vvcurveto
          -189 -726 rmoveto
          101 47 81 102 59 vhcurveto
          32 -33 35 -36 39 -38 362 -360 rcurveline
          -89 -89 -87 -38 -95 hhcurveto
          -189 -157 145 208 hvcurveto
          endchar
        </CharString>
        <CharString name="anoteleiagreek">
          528 264 702 107 callgsubr
          71 -71 86 hvcurveto
          endchar
        </CharString>
        <CharString name="aogonek">
          1128 369 -20 rmoveto
          156 126 67 92 47 hvcurveto
          -98 21 93 -54 111 hhcurveto
          14 13 1 1 13 hvcurveto
          -189 -103 -72 -95 -102 vvcurveto
          -105 88 -66 111 95 82 40 62 38 vhcurveto
          58 vlineto
          -17 -17 -33 -11 -36 hhcurveto
          -55 -47 37 73 89 54 83 127 102 hvcurveto
          56 vlineto
          -4 -11 -16 -3 -17 hhcurveto
          -57 -44 35 85 hvcurveto
          481 vlineto
          228 -162 101 -259 -255 -175 -105 -136 -73 59 -53 74 76 58 56 71 57 -36 47 -50 16 vhcurveto
          21 45 53 12 58 hhcurveto
          149 92 -68 -181 hvcurveto
          -94 vlineto
          -208 -44 rlineto
          -293 -62 -113 -98 -154 vvcurveto
          -145 121 -100 171 vhcurveto
          -16 291 rmoveto
          111 62 70 182 41 vhcurveto
          94 21 rlineto
          -323 vlineto
          -57 -34 -62 -33 -78 hhcurveto
          -94 -70 61 109 hvcurveto
          endchar
        </CharString>
        <CharString name="approxequal">
          1196 862 746 213 callsubr
          -172 -2 -65 -71 -95 hhcurveto
          -480 vmoveto
          -154 -167 243 -190 hhcurveto
          -161 -106 -114 -246 hvcurveto
          104 hlineto
          172 2 65 71 94 155 167 -244 190 hhcurveto
          161 106 114 246 hvcurveto
          -104 hlineto
          -171 -2 -65 -71 -95 hhcurveto
          endchar
        </CharString>
        <CharString name="aring">
          1127 244 157 callsubr
          -58 -1333 -99 callsubr
        </CharString>
        <CharString name="aringacute">
          1127 808 1488 rmoveto
          161 vlineto
          -565 -195 rlineto
          -61 vlineto
          313 229 callsubr
          27 30 44 hvcurveto
          41 hlineto
          46 25 -30 -43 -42 -25 -31 -46 hvcurveto
          -176 -1172 -99 callsubr
        </CharString>
        <CharString name="aringbelow">
          1127 369 -20 38 callsubr
          -61 -561 rmoveto
          -110 124 -70 157 158 123 38 callgsubr
          14 callgsubr
        </CharString>
        <CharString name="asciicircum">
          1196 568 1444 rmoveto
          -439 -584 79 -74 389 514 388 -515 83 75 -440 584 rlineto
          endchar
        </CharString>
        <CharString name="asciitilde">
          1196 862 513 213 callsubr
          -171 -2 -65 -72 -95 hhcurveto
          endchar
        </CharString>
        <CharString name="asterisk">
          774 373 1134 rmoveto
          27 hlineto
          61 201 rlineto
          82 29 -50 52 -53 hhcurveto
          -55 -49 -52 -82 29 hvcurveto
          94 -203 rmoveto
          13 -24 200 48 rlineto
          86 16 19 69 -26 46 -28 48 -70 17 -56 -67 rrcurveto
          -189 -177 rmoveto
          13 24 -138 153 rlineto
          -56 67 -71 -18 -27 -47 -27 -47 20 -68 86 -17 rrcurveto
          213 -77 rmoveto
          -13 25 -200 -48 rlineto
          -85 -17 -20 -69 26 -46 28 -48 70 -17 56 67 rrcurveto
          189 178 rmoveto
          -13 -24 139 -153 rlineto
          55 -67 71 17 27 47 27 47 -20 68 -85 17 rrcurveto
          -219 20 rmoveto
          -27 hlineto
          -61 -200 rlineto
          -83 -29 49 -52 54 hhcurveto
          55 49 52 83 -29 hvcurveto
          endchar
        </CharString>
        <CharString name="at">
          2012 562 373 rmoveto
          -204 82 -128 146 125 123 87 164 66 vhcurveto
          -3 -7 -33 -4 vvcurveto
          -145 -14 76 -96 187 hhcurveto
          313 266 277 398 443 -355 295 -488 -544 -453 -418 -590 -511 366 -328 444 167 178 40 80 103 hvcurveto
          61 vlineto
          -77 -130 -143 -23 -158 hhcurveto
          -409 -326 292 473 537 416 383 491 435 314 -255 -411 -367 -236 -201 -178 -73 -41 40 117 24 hvcurveto
          151 703 -120 0 -134 -122 rlineto
          86 -32 -69 56 -111 hhcurveto
          -268 -184 -310 -306 hvcurveto
          248 -10 rmoveto
          228 105 309 166 69 43 -51 -84 4 vhcurveto
          -73 -345 rlineto
          -129 -28 -91 -123 -96 hhcurveto
          -71 -28 79 116 hvcurveto
          endchar
        </CharString>
        <CharString name="atilde">
          1127 649 52 callsubr
          -73 callgsubr
          7 hvcurveto
          69 -82 callgsubr
          -63 callgsubr
          -280 -1189 -99 callsubr
        </CharString>
        <CharString name="austral">
          1432 217 282 rmoveto
          -62 -177 -32 -29 -111 -17 rrcurveto
          -59 415 59 vlineto
          -144 21 -23 34 55 166 rrcurveto
          37 109 543 0 42 -121 51 -151 -23 -38 -140 -20 rlinecurve
          -59 603 59 vlineto
          -104 16 -35 31 -58 160 -43 123 rcurveline
          240 54 -260 hlineto
          -80 226 rlineto
          340 53 -359 hlineto
          -260 726 -177 0 -258 -726 rlineto
          -362 -53 343 hlineto
          -80 -226 rlineto
          -263 -54 243 hlineto
          208 333 rmoveto
          159 476 161 -476 rlineto
          -413 -279 rmoveto
          75 226 356 0 76 -226 rlineto
          endchar
        </CharString>
        <CharString name="austral.tnum">
          1201 -3 441 rmoveto
          -53 201 vlineto
          -31 -107 -52 -177 -25 -31 -93 -14 rlinecurve
          -59 347 59 vlineto
          -117 16 -16 30 47 175 rrcurveto
          30 108 426 0 32 -119 44 -162 -16 -32 -117 -16 rlinecurve
          -59 547 59 vlineto
          -90 13 -24 33 -49 164 -35 119 rcurveline
          198 53 -213 hlineto
          -66 225 rlineto
          279 54 -295 hlineto
          -214 727 -188 0 -212 -727 rlineto
          -298 -54 282 hlineto
          -66 -225 rlineto
          166 279 rmoveto
          122 447 122 -447 rlineto
          -321 -279 rmoveto
          62 225 274 0 61 -225 rlineto
          endchar
        </CharString>
        <CharString name="b">
          1239 1157 507 rmoveto
          91 callsubr
          endchar
        </CharString>
        <CharString name="backslash">
          706 535 -280 rmoveto
          135 hlineto
          -498 1860 rlineto
          -135 hlineto
          endchar
        </CharString>
        <CharString name="baht">
          1370 71 30 rmoveto
          595 hlineto
          2 2 0 3 hhcurveto
          -219 54 220 vlineto
          304 16 251 130 253 105 callgsubr
          182 99 192 vvcurveto
          197 -177 111 -311 13 vhcurveto
          219 -54 -218 vlineto
          -3 -2 0 -2 hhcurveto
          -595 30 callgsubr
          425 1256 rmoveto
          102 -3 27 -1 25 -2 23 -4 rlinecurve
          -539 vlineto
          -1 -10 -9 0 -10 hhcurveto
          -148 -1 rlineto
          433 271 rmoveto
          -152 -73 -86 -129 -24 vhcurveto
          522 vlineto
          142 -38 60 -95 -127 vvcurveto
          -433 -340 rmoveto
          148 -1 rlineto
          9 10 -1 10 hhcurveto
          -615 vlineto
          -24 -3 -25 -2 -26 -1 -102 -3 rcurveline
          491 320 rmoveto
          -163 -93 -102 -167 -37 vhcurveto
          600 vlineto
          168 -28 92 -111 -159 vvcurveto
          endchar
        </CharString>
        <CharString name="baht.tnum">
          1201 41 34 rmoveto
          553 -223 54 224 hlineto
          281 15 238 131 244 23 callgsubr
          186 -159 108 -294 12 vhcurveto
          223 -54 -222 -553 -59 vlineto
          46 callgsubr
          405 1250 rmoveto
          93 -2 19 -1 19 -1 17 -3 rlinecurve
          -541 vlineto
          -1 -8 -9 0 -9 hhcurveto
          -122 -1 rlineto
          384 280 rmoveto
          -147 -65 -94 -117 -29 vhcurveto
          522 vlineto
          121 -36 61 -91 -125 vvcurveto
          -384 -347 rmoveto
          122 -1 rlineto
          9 9 -1 8 hhcurveto
          -616 vlineto
          -18 -3 -18 -1 -19 -1 -93 -2 rcurveline
          441 316 rmoveto
          -162 -92 -102 -147 -35 vhcurveto
          599 vlineto
          153 -29 86 -111 -160 vvcurveto
          endchar
        </CharString>
        <CharString name="bar">
          706 286 -280 rmoveto
          135 1860 -135 hlineto
          endchar
        </CharString>
        <CharString name="bdotaccent">
          1239 293 1620 rmoveto
          81 64 60 78 80 -64 59 -81 -80 -65 -59 -80 -78 65 -60 80 hvcurveto
          864 -1113 rmoveto
          91 callsubr
          endchar
        </CharString>
        <CharString name="bdotbelow">
          1239 1157 507 rmoveto
          91 callsubr
          -239 -895 -84 callsubr
          -39 callsubr
        </CharString>
        <CharString name="becyrillic">
          1256 1174 495 rmoveto
          300 -208 192 -312 -225 -165 -126 -178 -70 vhcurveto
          -4 32 -2 35 36 vvcurveto
          208 92 165 346 33 vhcurveto
          122 12 287 29 86 77 15 208 rlinecurve
          -60 hlineto
          -18 -52 -57 -12 -223 -24 -226 -25 -136 -58 -114 -104 rrcurveto
          -134 -125 -77 -206 -316 vvcurveto
          -370 185 -246 348 295 255 202 313 vhcurveto
          -295 -15 rmoveto
          -272 -86 -148 -158 -157 -88 175 254 261 84 159 163 152 90 -169 -260 vhcurveto
          endchar
        </CharString>
        <CharString name="betagreek">
          1228 133 -460 rmoveto
          285 hlineto
          -4 211 -3 185 -2 162 rrcurveto
          -68 54 105 -51 127 hhcurveto
          226 222 148 284 265 -173 168 -241 24 hvcurveto
          172 18 164 111 182 vvcurveto
          201 -162 130 -283 -276 -208 -145 -385 vhcurveto
          264 128 rmoveto
          210 69 109 147 131 67 -107 -161 -170 -95 -100 -193 -5 vhcurveto
          -193 vlineto
          228 -6 128 -125 -205 vvcurveto
          -186 -112 -91 -141 -98 -82 39 58 -41 vhcurveto
          -8 497 0 267 169 vvcurveto
          endchar
        </CharString>
        <CharString name="bitcoin">
          1363 71 30 rmoveto
          446 -219 54 219 88 hlineto
          48 47 3 5 45 hvcurveto
          -227 54 235 vlineto
          241 42 182 127 215 105 callgsubr
          181 99 192 vvcurveto
          167 -126 105 -229 36 vhcurveto
          232 -54 -225 vlineto
          5 -43 -47 2 -50 hhcurveto
          -88 218 -54 -218 -446 30 callgsubr
          852 976 rmoveto
          -182 -105 -87 -181 -1 vhcurveto
          -141 -1 0 551 96 -3 rlineto
          234 -8 97 -109 -160 vvcurveto
          57 -646 rmoveto
          -201 -141 -107 -247 -9 vhcurveto
          -96 -3 0 626 141 -1 rlineto
          222 -2 121 -120 -183 vvcurveto
          endchar
        </CharString>
        <CharString name="bitcoin.tnum">
          1201 41 34 rmoveto
          405 -223 54 223 94 hlineto
          43 42 2 6 41 hvcurveto
          -231 54 239 vlineto
          223 43 170 125 207 23 callgsubr
          157 -114 102 -214 35 vhcurveto
          235 -53 -228 vlineto
          4 -40 -42 2 -44 hhcurveto
          -94 222 -54 -222 -405 -59 hlineto
          46 callgsubr
          787 980 rmoveto
          -178 -94 -100 -168 -1 vhcurveto
          -117 -1 0 550 88 -2 rlineto
          193 -7 98 -102 -159 vvcurveto
          56 -658 rmoveto
          -197 -138 -108 -209 -7 vhcurveto
          -88 -2 0 625 117 -1 rlineto
          203 -2 115 -122 -186 vvcurveto
          endchar
        </CharString>
        <CharString name="blinebelow">
          1239 1157 507 rmoveto
          91 callsubr
          -521 -839 -94 callgsubr
        </CharString>
        <CharString name="braceleft">
          706 463 996 rmoveto
          251 vlineto
          158 25 115 168 vhcurveto
          60 -42 vlineto
          -262 -130 -127 -232 hvcurveto
          -329 vlineto
          -154 -80 -60 -115 vhcurveto
          -54 vlineto
          115 80 -60 -156 hvcurveto
          -328 vlineto
          -233 130 -127 262 vhcurveto
          42 60 hlineto
          -168 -25 115 159 hvcurveto
          252 vlineto
          212 -103 106 -217 27 vhcurveto
          218 27 102 107 211 vvcurveto
          endchar
        </CharString>
        <CharString name="braceright">
          706 243 996 rmoveto
          -211 102 -107 218 -27 vhcurveto
          -217 -27 -103 -106 -212 vvcurveto
          -252 vlineto
          -159 -25 -115 -167 vhcurveto
          -60 41 vlineto
          262 130 127 233 hvcurveto
          328 vlineto
          156 80 60 114 vhcurveto
          54 vlineto
          -114 -80 60 154 hvcurveto
          329 vlineto
          232 -130 127 -262 vhcurveto
          -41 -60 hlineto
          167 25 -115 -158 hvcurveto
          endchar
        </CharString>
        <CharString name="bracketleft">
          706 179 -284 rmoveto
          461 4 0 61 -222 6 0 1726 222 6 0 61 -461 4 rlineto
          endchar
        </CharString>
        <CharString name="bracketright">
          706 527 1584 rmoveto
          -461 -4 0 -61 221 -6 0 -1726 -221 -6 0 -61 461 -4 rlineto
          endchar
        </CharString>
        <CharString name="breve">
          1024 512 -13 callsubr
          -36 callgsubr
          -42 callgsubr
          20 callsubr
          endchar
        </CharString>
        <CharString name="breveacutecmb">
          128 callsubr
          283 -290 -36 callsubr
          134 callsubr
        </CharString>
        <CharString name="breveacutecmb.short">
          121 callsubr
          -51 vlineto
          290 -237 103 callsubr
        </CharString>
        <CharString name="brevebelowcmb">
          0 -448 vmoveto
          -16 callgsubr
        </CharString>
        <CharString name="brevecmb">
          0 1146 vmoveto
          201 105 145 149 21 -1 19 -36 callgsubr
          -42 callgsubr
          20 callsubr
          endchar
        </CharString>
        <CharString name="brevecmb.short">
          0 1129 vmoveto
          179 97 127 131 18 -1 17 -3 15 hvcurveto
          -64 -5 hlineto
          -90 -84 -65 -125 -123 -85 65 90 vhcurveto
          5 -63 vlineto
          -3 -15 -1 -17 -18 vvcurveto
          -131 97 -127 179 vhcurveto
          endchar
        </CharString>
        <CharString name="brevecyrilliccmb">
          0 1139 vmoveto
          192 119 114 129 76 -48 48 -69 -66 -47 -50 -63 -62 47 -48 58 hvcurveto
          2 2 0 3 4 callgsubr
          endchar
        </CharString>
        <CharString name="brevecyrilliccmb.short">
          0 1578 vmoveto
          191 121 106 126 71 -47 48 101 callgsubr
          -14 callgsubr
          endchar
        </CharString>
        <CharString name="brevegravecmb">
          -80 callgsubr
          283 -545 -36 callsubr
          134 callsubr
        </CharString>
        <CharString name="brevegravecmb.short">
          0 -290 82 callsubr
          290 -454 103 callsubr
        </CharString>
        <CharString name="brevehookabovecmb">
          0 -8 1626 rmoveto
          -81 -63 -36 -42 -35 hvcurveto
          -49 vlineto
          15 23 120 callsubr
          -84 50 -99 vhcurveto
          8 -525 -36 callsubr
          134 callsubr
        </CharString>
        <CharString name="brevehookabovecmb.short">
          0 -8 1981 rmoveto
          -83 -64 -32 -35 -37 hvcurveto
          -42 vlineto
          13 25 45 28 callgsubr
          74 38 73 vvcurveto
          72 -85 43 -102 vhcurveto
          8 -446 103 callsubr
        </CharString>
        <CharString name="brevetildecmb">
          0 118 1416 70 callsubr
          -54 -33 callsubr
          211 callsubr
          -118 -315 -36 callsubr
          134 callsubr
        </CharString>
        <CharString name="brevetildecmb.short">
          0 122 1800 -28 callgsubr
          -47 -1 -28 -19 -46 hhcurveto
          -28 -29 7 12 -40 hvcurveto
          -34 11 rlineto
          13 -46 -43 11 -49 hhcurveto
          -101 -69 -59 -66 callgsubr
          -6 -13 140 callsubr
          -122 -265 103 callsubr
        </CharString>
        <CharString name="brokenbar">
          706 286 789 rmoveto
          135 791 -135 hlineto
          -1860 vmoveto
          135 791 -135 hlineto
          endchar
        </CharString>
        <CharString name="bullet">
          733 366 362 rmoveto
          121 99 100 121 123 -99 98 -121 -120 -100 -98 -123 -121 100 -100 120 hvcurveto
          endchar
        </CharString>
        <CharString name="c">
          1041 594 -20 7 callsubr
        </CharString>
        <CharString name="cacute">
          1041 546 -80 callsubr
          -72 callsubr
          123 -1139 7 callsubr
        </CharString>
        <CharString name="caret">
          528 239 hmoveto
          -278 -358 64 -64 238 306 239 -307 66 64 -278 359 rlineto
          endchar
        </CharString>
        <CharString name="caron">
          1024 748 -17 callsubr
          endchar
        </CharString>
        <CharString name="caroncmb">
          0 236 -17 callsubr
          endchar
        </CharString>
        <CharString name="caroncmb.short">
          0 231 1390 rmoveto
          -219 -142 -43 callgsubr
          endchar
        </CharString>
        <CharString name="carondotaccentcmb">
          0 1374 vmoveto
          181 callsubr
          282 -18 rmoveto
          -282 -102 -282 102 0 -62 261 -197 43 0 260 197 rlineto
          endchar
        </CharString>
        <CharString name="carondotaccentcmb.short">
          0 1782 vmoveto
          59 46 39 52 51 -46 40 -59 -59 -46 -1 callgsubr
          273 168 rlineto
          endchar
        </CharString>
        <CharString name="caronslovak">
          1024 442 1086 rmoveto
          199 413 -213 0 -45 -413 rlineto
          endchar
        </CharString>
        <CharString name="caronslovakcmb">
          0 77 1086 -48 callgsubr
          endchar
        </CharString>
        <CharString name="ccaron">
          1041 838 110 callsubr
          -89 callgsubr
          -319 -1528 7 callsubr
        </CharString>
        <CharString name="ccedilla">
          1041 566 -466 69 callsubr
          -99 66 -105 callgsubr
          158 8 128 63 67 90 rlinecurve
          150 callsubr
          -4 callgsubr
        </CharString>
        <CharString name="ccedillaacute">
          1041 546 -80 callsubr
          -72 callsubr
          95 -1585 69 callsubr
          -99 66 -105 callgsubr
          158 8 128 63 67 90 rlinecurve
          150 callsubr
          -4 callgsubr
        </CharString>
        <CharString name="ccircumflex">
          1041 366 49 callsubr
          303 -1139 7 callsubr
        </CharString>
        <CharString name="cdotaccent">
          1041 602 59 callsubr
          80 callsubr
          -8 -1190 7 callsubr
        </CharString>
        <CharString name="cedi">
          1345 774 -189 rmoveto
          54 201 hlineto
          172 178 46 57 79 hvcurveto
          13 316 rlineto
          -56 hlineto
          -245 -59 -129 -92 -184 -5 -4 0 -5 hhcurveto
          1256 vlineto
          5 4 0 5 hhcurveto
          193 120 -109 -226 55 hvcurveto
          55 hlineto
          -12 316 -87 56 -139 44 -199 1 rlinecurve
          200 -54 -201 vlineto
          -397 -19 -278 -267 -417 vvcurveto
          -428 285 -266 390 -21 vhcurveto
          -377 734 rmoveto
          343 140 221 237 34 vhcurveto
          -1245 vlineto
          -239 41 -138 263 343 vvcurveto
          endchar
        </CharString>
        <CharString name="cedi.tnum">
          1201 698 -189 rmoveto
          54 202 hlineto
          152 2 144 39 74 46 12 316 rcurveline
          -56 hlineto
          -54 -233 -111 -90 -155 1 rrcurveto
          -2 -2 0 -2 hhcurveto
          1256 vlineto
          3 2 0 3 hhcurveto
          150 107 -105 -213 49 hvcurveto
          56 hlineto
          -12 315 -79 45 -118 37 -161 3 rlinecurve
          200 -54 -201 vlineto
          -360 -18 -256 -271 -415 vvcurveto
          -446 264 -252 352 -16 vhcurveto
          -319 734 rmoveto
          344 116 218 203 36 vhcurveto
          -1246 vlineto
          -206 40 -113 249 359 vvcurveto
          endchar
        </CharString>
        <CharString name="cedilla">
          1024 483 -466 rmoveto
          125 75 callsubr
          -118 -9 -9 0 -1 -9 hvcurveto
          80 104 rlineto
          31 -51 vlineto
          -154 -197 -27 callsubr
          66 callsubr
        </CharString>
        <CharString name="cedillacmb">
          0 -29 -466 rmoveto
          -75 callgsubr
          78 98 rlineto
          31 -51 vlineto
          -154 -191 -27 callsubr
          66 callsubr
        </CharString>
        <CharString name="cent">
          1056 633 hmoveto
          206 vlineto
          164 9 134 62 68 92 rrcurveto
          59 vlineto
          -54 -58 -98 -35 -105 hhcurveto
          -37 53 callgsubr
          -20 38 hvcurveto
          -50 -14 -37 -48 -57 vvcurveto
          -73 56 -58 74 72 58 20 callgsubr
          -212 -205 -298 vvcurveto
          -308 217 -24 callgsubr
        </CharString>
        <CharString name="cent.1">
          1038 629 -13 callgsubr
          122 148 180 62 callgsubr
          73 59 223 callsubr
        </CharString>
        <CharString name="cent.1.tnum">
          1201 684 -13 callgsubr
          123 148 179 62 callgsubr
          72 60 223 callsubr
        </CharString>
        <CharString name="cent.tnum">
          1201 679 hmoveto
          206 vlineto
          164 9 133 62 69 92 -1 59 rcurveline
          -54 -58 -97 -35 -106 hhcurveto
          -36 53 callgsubr
          -19 38 hvcurveto
          -50 -15 -38 -47 -58 vvcurveto
          -73 56 -58 74 72 59 20 callgsubr
          -213 -205 -298 vvcurveto
          -308 218 -24 callgsubr
        </CharString>
        <CharString name="checyrillic">
          1276 162 697 rmoveto
          -220 142 -100 200 119 114 34 42 65 vhcurveto
          -296 vlineto
          -68 -21 -17 -129 -13 vhcurveto
          -59 561 59 vlineto
          -113 12 -20 17 69 vvcurveto
          679 vlineto
          70 20 16 113 12 vhcurveto
          60 -527 -60 vlineto
          100 -10 16 -16 -67 vvcurveto
          -326 vlineto
          -19 -37 -73 -17 -65 hhcurveto
          -123 -65 61 148 hvcurveto
          153 vlineto
          67 16 16 98 10 vhcurveto
          60 -522 -60 vlineto
          112 -11 19 -17 -70 vvcurveto
          endchar
        </CharString>
        <CharString name="chigreek">
          1128 298 -459 rmoveto
          160 645 142 -329 rlineto
          -250 104 76 -83 145 hhcurveto
          86 74 39 50 42 hvcurveto
          58 vlineto
          -9 -13 -24 -9 -27 hhcurveto
          -64 -45 37 196 -86 hvcurveto
          -176 408 120 236 141 244 146 219 rlinecurve
          -279 hlineto
          -161 -621 -131 304 rlineto
          249 -104 -75 82 -145 hhcurveto
          -88 -72 -40 -49 -43 hvcurveto
          -58 vlineto
          9 13 24 9 27 hhcurveto
          65 46 -37 -196 84 hvcurveto
          165 -382 -128 -259 -138 -249 -139 -214 rlinecurve
          endchar
        </CharString>
        <CharString name="circumflex">
          1024 276 49 callsubr
          endchar
        </CharString>
        <CharString name="circumflexacutecmb">
          128 callsubr
          1 -294 115 callsubr
        </CharString>
        <CharString name="circumflexacutecmb.short">
          0 290 1831 rmoveto
          137 vlineto
          -580 -166 rlineto
          -51 vlineto
          -253 vmoveto
          138 callsubr
        </CharString>
        <CharString name="circumflexbelowcmb">
          0 -220 -456 -66 callsubr
          71 -86 callgsubr
        </CharString>
        <CharString name="circumflexcmb">
          0 -236 49 callsubr
          endchar
        </CharString>
        <CharString name="circumflexcmb.short">
          0 -206 1092 rmoveto
          219 141 218 -141 74 0 -208 285 -167 0 -209 -285 rlineto
          endchar
        </CharString>
        <CharString name="circumflexgravecmb">
          -80 callgsubr
          1 -549 115 callsubr
        </CharString>
        <CharString name="circumflexgravecmb.short">
          0 -290 1831 68 callsubr
          -470 vmoveto
          138 callsubr
        </CharString>
        <CharString name="circumflexhookabovecmb">
          0 217 -68 callgsubr
          120 callsubr
          -84 50 -100 vhcurveto
          -499 -529 115 callsubr
        </CharString>
        <CharString name="circumflexhookabovecmb.short">
          0 244 -70 callgsubr
          44 11 44 hhcurveto
          64 36 -23 -35 -35 -34 -25 -70 -16 hvcurveto
          51 -32 rlineto
          127 24 70 38 73 vvcurveto
          72 -83 43 -97 vhcurveto
          -534 -433 rmoveto
          138 callsubr
        </CharString>
</ttFont>
